{
.appVersion = "3343";
.formatVersion = 3;
date = "2025-02-09 20:11:06 +0000";
familyName = Castello;
fontMaster = (
{
iconName = Bold_Condensed;
id = m01;
metricValues = (
{
over = 16;
pos = 775;
},
{
over = 16;
pos = 650;
},
{
over = 16;
pos = 500;
},
{
over = -16;
},
{
over = -16;
pos = -150;
},
{
}
);
name = "Bold-Condensed";
userData = {
GSOffsetHorizontal = -25;
GSOffsetKeepCompatible = 1;
GSOffsetVertical = -15;
};
}
);
glyphs = (
{
glyphname = A;
kernLeft = A;
kernRight = A;
lastChange = "2025-05-01 12:56:03 +0000";
layers = (
{
background = {
anchors = (
{
name = bottom;
pos = (230,0);
},
{
name = ogonek;
pos = (414,10);
},
{
name = top;
pos = (230,650);
}
);
shapes = (
{
closed = 1;
nodes = (
(5,0,l),
(145,0,l),
(168,130,l),
(292,130,l),
(315,0,l),
(455,0,l),
(331,650,l),
(129,650,l)
);
},
{
closed = 1;
nodes = (
(230,472,l),
(274,240,l),
(186,240,l)
);
}
);
};
backgroundImage = {
imagePath = "../../../projects/o-r-g/castello/castello/png/ABCDE.png";
locked = 1;
pos = (-110,-1549);
scale = (4.4,4.4);
};
layerId = m01;
shapes = (
{
closed = 1;
nodes = (
(5,0,l),
(145,0,l),
(259,650,l),
(129,650,l)
);
},
{
closed = 1;
nodes = (
(201,650,l),
(315,0,l),
(455,0,l),
(331,650,l)
);
},
{
closed = 1;
nodes = (
(160,135,l),
(300,135,l),
(300,245,l),
(160,245,l)
);
}
);
width = 460;
}
);
metricLeft = "=O*.25";
metricRight = "=O*.25";
unicode = 65;
},
{
glyphname = AE;
kernLeft = A;
kernRight = E;
lastChange = "2025-05-01 12:56:30 +0000";
layers = (
{
anchors = (
{
name = bottom;
pos = (431,0);
},
{
name = ogonek;
pos = (565,10);
},
{
name = top;
pos = (431,650);
},
{
name = topleft;
pos = (282,650);
}
);
layerId = m01;
shapes = (
{
closed = 1;
nodes = (
(22,0,l),
(162,0,l),
(352,650,l),
(222,650,l)
);
},
{
closed = 1;
nodes = (
(307,650,l),
(297,0,l),
(437,0,l),
(437,650,l)
);
},
{
closed = 1;
nodes = (
(183,135,l),
(323,135,l),
(323,245,l),
(183,245,l)
);
},
{
closed = 1;
nodes = (
(437,0,l),
(437,650,l)
);
},
{
closed = 1;
nodes = (
(437,270,l),
(577,270,l),
(577,380,l),
(437,380,l)
);
},
{
closed = 1;
nodes = (
(437,540,l),
(577,540,l),
(577,650,l),
(437,650,l)
);
},
{
closed = 1;
nodes = (
(437,0,l),
(577,0,l),
(577,110,l),
(437,110,l)
);
}
);
width = 602;
}
);
metricLeft = "=O";
metricRight = "=H";
unicode = 198;
},
{
glyphname = B;
kernLeft = H;
kernRight = B;
lastChange = "2025-04-23 15:07:37 +0000";
layers = (
{
anchors = (
{
name = bottom;
pos = (224,0);
},
{
name = center;
pos = (112,163);
},
{
name = top;
pos = (224,650);
}
);
background = {
hints = (
{
name = _corner.BASE;
scale = (1.08,1.08);
type = Corner;
},
{
name = _corner.BASE;
scale = (1.08,1.08);
type = Corner;
},
{
name = _corner.BASE;
scale = (0.3,0.3);
type = Corner;
},
{
name = _corner.BASE;
options = 2;
scale = (-0.3,0.3);
type = Corner;
},
{
name = _corner.BASE;
scale = (0.9,0.9);
type = Corner;
},
{
name = _corner.BASE;
scale = (1.08,1.08);
type = Corner;
},
{
name = _corner.BASE;
scale = (0.3,0.3);
type = Corner;
},
{
name = _corner.BASE;
options = 2;
scale = (-0.3,0.3);
type = Corner;
},
{
name = _corner.BASE;
scale = (1.08,1.08);
type = Corner;
},
{
name = _corner.BASE;
scale = (0.9,0.9);
type = Corner;
},
{
name = _corner.BASE;
scale = (0.3,0.3);
type = Corner;
},
{
name = _corner.BASE;
options = 2;
scale = (-0.3,0.3);
type = Corner;
},
{
name = _corner.ROUND;
origin = (0,1);
scale = (1.08,1.08);
type = Corner;
},
{
name = _segment.DOUBLECUT;
origin = (0,3);
type = Segment;
},
{
name = _corner.ROUND;
origin = (0,4);
scale = (0.8,0.8);
type = Corner;
},
{
name = _corner.ROUND;
origin = (1,0);
scale = (0.3,0.3);
type = Corner;
},
{
name = _corner.ROUND;
options = 2;
origin = (1,3);
scale = (-0.3,0.3);
type = Corner;
},
{
name = _corner.ROUND;
origin = (2,0);
scale = (0.3,0.3);
type = Corner;
},
{
name = _corner.ROUND;
options = 2;
origin = (2,3);
scale = (-0.3,0.3);
type = Corner;
}
);
shapes = (
{
closed = 1;
nodes = (
(25,0,l),
(425,0,l),
(425,248,l),
(425,452,l),
(425,700,l),
(25,700,l)
);
},
{
closed = 1;
nodes = (
(275,405,l),
(175,405,l),
(175,590,l),
(275,590,l)
);
},
{
closed = 1;
nodes = (
(275,110,l),
(175,110,l),
(175,295,l),
(275,295,l)
);
}
);
};
hints = (
{
name = _corner.ROUND;
origin = (0,1);
type = Corner;
},
{
name = _corner.ROUND;
origin = (0,4);
scale = (1.08,1.08);
type = Corner;
},
{
name = _corner.ROUND;
origin = (1,0);
scale = (0.3,0.3);
type = Corner;
},
{
name = _corner.ROUND;
options = 2;
origin = (1,3);
scale = (-0.3,0.3);
type = Corner;
},
{
name = _corner.ROUND;
origin = (0,1);
scale = (1.08,1.08);
type = Corner;
},
{
name = _corner.ROUND;
origin = (0,4);
scale = (0.8,0.8);
type = Corner;
},
{
name = _corner.ROUND;
origin = (2,0);
scale = (0.3,0.3);
type = Corner;
},
{
name = _corner.ROUND;
options = 2;
origin = (2,3);
scale = (-0.3,0.3);
type = Corner;
},
{
name = _segment.DOUBLECUT;
origin = (0,3);
type = Segment;
}
);
layerId = m01;
shapes = (
{
closed = 1;
nodes = (
(25,0,l),
(425,0,l),
(425,223,l),
(425,427,l),
(425,650,l),
(25,650,l)
);
},
{
closed = 1;
nodes = (
(275,380,l),
(175,380,l),
(175,540,l),
(275,540,l)
);
},
{
closed = 1;
nodes = (
(275,110,l),
(175,110,l),
(175,270,l),
(275,270,l)
);
}
);
width = 447;
}
);
metricLeft = H;
metricRight = O;
unicode = 66;
},
{
glyphname = C;
kernLeft = O;
kernRight = C;
lastChange = "2025-04-23 15:31:46 +0000";
layers = (
{
anchors = (
{
name = bottom;
pos = (220,0);
},
{
name = top;
pos = (220,650);
}
);
background = {
hints = (
{
name = _corner.ROUND;
type = Corner;
},
{
name = _corner.ROUND;
scale = (1.08,1.08);
type = Corner;
},
{
name = _corner.ROUND;
scale = (1.08,1.08);
type = Corner;
},
{
name = _corner.ROUND;
type = Corner;
},
{
name = _corner.ROUND;
scale = (0.3,0.3);
type = Corner;
},
{
name = _corner.ROUND;
options = 2;
scale = (-0.3,0.3);
type = Corner;
},
{
name = _corner.ROUND;
scale = (0.3,0.3);
type = Corner;
},
{
name = _corner.ROUND;
options = 2;
scale = (-0.3,0.3);
type = Corner;
}
);
shapes = (
{
closed = 0;
nodes = (
(422,255,l),
(272,255,l)
);
}
);
};
hints = (
{
name = _corner.ROUND;
origin = (0,0);
type = Corner;
},
{
name = _corner.ROUND;
origin = (0,1);
scale = (1.08,1.08);
type = Corner;
},
{
name = _corner.ROUND;
origin = (0,10);
scale = (1.08,1.08);
type = Corner;
},
{
name = _corner.ROUND;
origin = (0,11);
type = Corner;
},
{
name = _corner.ROUND;
origin = (0,4);
scale = (0.3,0.3);
type = Corner;
},
{
name = _corner.ROUND;
options = 2;
origin = (0,5);
scale = (-0.3,0.3);
type = Corner;
},
{
name = _corner.ROUND;
origin = (0,6);
scale = (0.3,0.3);
type = Corner;
},
{
name = _corner.ROUND;
options = 2;
origin = (0,7);
scale = (-0.3,0.3);
type = Corner;
}
);
layerId = m01;
shapes = (
{
closed = 1;
nodes = (
(22,0,l),
(422,0,l),
(422,230,l),
(272,230,l),
(272,110,l),
(172,110,l),
(172,540,l),
(272,540,l),
(272,420,l),
(422,420,l),
(422,650,l),
(22,650,l)
);
}
);
width = 439;
}
);
metricLeft = O;
metricRight = "=O*.75";
unicode = 67;
},
{
glyphname = D;
kernLeft = H;
kernRight = O;
lastChange = "2025-04-23 15:07:47 +0000";
layers = (
{
anchors = (
{
name = bottom;
pos = (224,0);
},
{
name = center;
pos = (112,325);
},
{
name = top;
pos = (224,650);
}
);
backgroundImage = {
imagePath = "../../../projects/o-r-g/castello/castello/png/ABCDE.png";
locked = 1;
pos = (-1717,-1549);
scale = (4.4,4.4);
};
hints = (
{
name = _corner.ROUND;
origin = (0,1);
scale = (1.08,1.08);
type = Corner;
},
{
name = _corner.ROUND;
origin = (0,2);
scale = (1.08,1.08);
type = Corner;
},
{
name = _corner.ROUND;
origin = (1,0);
scale = (0.3,0.3);
type = Corner;
},
{
name = _corner.ROUND;
options = 2;
origin = (1,3);
scale = (-0.3,0.3);
type = Corner;
}
);
layerId = m01;
shapes = (
{
closed = 1;
nodes = (
(25,0,l),
(425,0,l),
(425,650,l),
(25,650,l)
);
},
{
closed = 1;
nodes = (
(275,110,l),
(175,110,l),
(175,540,l),
(275,540,l)
);
}
);
width = 447;
}
);
metricLeft = H;
metricRight = O;
unicode = 68;
},
{
glyphname = E;
kernLeft = H;
kernRight = E;
lastChange = "2025-04-27 21:59:33 +0000";
layers = (
{
anchors = (
{
name = bottom;
pos = (169,0);
},
{
name = ogonek;
pos = (303,10);
},
{
name = top;
pos = (169,650);
},
{
name = topleft;
pos = (20,650);
}
);
background = {
shapes = (
{
closed = 1;
nodes = (
(25,0,l),
(175,0,l),
(175,700,l),
(25,700,l)
);
},
{
closed = 1;
nodes = (
(175,295,l),
(315,295,l),
(315,405,l),
(175,405,l)
);
},
{
closed = 1;
nodes = (
(175,590,l),
(315,590,l),
(315,700,l),
(175,700,l)
);
},
{
closed = 1;
nodes = (
(175,0,l),
(315,0,l),
(315,110,l),
(175,110,l)
);
}
);
};
backgroundImage = {
imagePath = "../../../projects/o-r-g/castello/castello/png/ABCDE.png";
locked = 1;
pos = (-2249,-1549);
scale = (4.4,4.4);
};
layerId = m01;
shapes = (
{
closed = 1;
nodes = (
(25,0,l),
(175,0,l),
(175,650,l),
(25,650,l)
);
},
{
closed = 1;
nodes = (
(175,270,l),
(315,270,l),
(315,380,l),
(175,380,l)
);
},
{
closed = 1;
nodes = (
(175,540,l),
(315,540,l),
(315,650,l),
(175,650,l)
);
},
{
closed = 1;
nodes = (
(175,0,l),
(315,0,l),
(315,110,l),
(175,110,l)
);
}
);
width = 337;
}
);
metricLeft = H;
metricRight = O;
unicode = 69;
},
{
glyphname = F;
kernLeft = H;
kernRight = F;
lastChange = "2025-04-23 17:20:42 +0000";
layers = (
{
anchors = (
{
name = bottom;
pos = (169,0);
},
{
name = top;
pos = (169,650);
}
);
layerId = m01;
shapes = (
{
closed = 1;
nodes = (
(25,0,l),
(175,0,l),
(175,650,l),
(25,650,l)
);
},
{
closed = 1;
nodes = (
(175,270,l),
(315,270,l),
(315,380,l),
(175,380,l)
);
},
{
closed = 1;
nodes = (
(175,540,l),
(315,540,l),
(315,650,l),
(175,650,l)
);
}
);
width = 337;
}
);
metricLeft = H;
metricRight = O;
unicode = 70;
},
{
glyphname = G;
kernLeft = O;
kernRight = G;
lastChange = "2025-04-23 15:09:52 +0000";
layers = (
{
anchors = (
{
name = bottom;
pos = (222,0);
},
{
name = top;
pos = (222,650);
}
);
backgroundImage = {
imagePath = "../../../projects/o-r-g/castello/castello/png/FGHIJ.png";
locked = 1;
pos = (-562,-1364);
scale = (4.1,4.1);
};
hints = (
{
name = _corner.ROUND;
origin = (0,0);
type = Corner;
},
{
name = _corner.ROUND;
origin = (0,1);
scale = (1.08,1.08);
type = Corner;
},
{
name = _corner.ROUND;
origin = (0,6);
scale = (0.3,0.3);
type = Corner;
},
{
name = _corner.ROUND;
options = 2;
origin = (0,7);
scale = (-0.3,0.3);
type = Corner;
},
{
name = _corner.ROUND;
origin = (0,8);
scale = (0.3,0.3);
type = Corner;
},
{
name = _corner.ROUND;
options = 2;
origin = (0,9);
scale = (-0.3,0.3);
type = Corner;
},
{
name = _corner.ROUND;
origin = (0,12);
scale = (1.08,1.08);
type = Corner;
},
{
name = _corner.ROUND;
origin = (0,13);
type = Corner;
}
);
layerId = m01;
shapes = (
{
closed = 1;
nodes = (
(22,0,l),
(422,0,l),
(422,340,l),
(222,340,l),
(222,230,l),
(272,230,l),
(272,110,l),
(172,110,l),
(172,540,l),
(272,540,l),
(272,420,l),
(422,420,l),
(422,650,l),
(22,650,l)
);
}
);
width = 444;
}
);
metricLeft = O;
metricRight = O;
unicode = 71;
},
{
glyphname = H;
kernLeft = H;
kernRight = H;
lastChange = "2025-04-23 15:10:20 +0000";
layers = (
{
anchors = (
{
name = bottom;
pos = (225,0);
},
{
name = center;
pos = (225,488);
},
{
name = top;
pos = (225,650);
},
{
name = topleft;
pos = (20,650);
}
);
background = {
shapes = (
{
closed = 1;
nodes = (
(25,0,l),
(175,0,l),
(175,700,l),
(25,700,l)
);
},
{
closed = 1;
nodes = (
(165,295,l),
(285,295,l),
(285,405,l),
(165,405,l)
);
},
{
closed = 1;
nodes = (
(275,0,l),
(425,0,l),
(425,700,l),
(275,700,l)
);
}
);
};
backgroundImage = {
imagePath = "../../../projects/o-r-g/castello/castello/png/FGHIJ.png";
locked = 1;
pos = (-1012,-1364);
scale = (4.1,4.1);
};
layerId = m01;
shapes = (
{
closed = 1;
nodes = (
(25,0,l),
(175,0,l),
(175,270,l),
(275,270,l),
(275,0,l),
(425,0,l),
(425,650,l),
(275,650,l),
(275,380,l),
(175,380,l),
(175,650,l),
(25,650,l)
);
}
);
width = 450;
}
);
unicode = 72;
},
{
glyphname = I;
kernLeft = H;
kernRight = H;
lastChange = "2025-05-01 12:58:17 +0000";
layers = (
{
anchors = (
{
name = bottom;
pos = (100,0);
},
{
name = ogonek;
pos = (180,10);
},
{
name = top;
pos = (100,650);
},
{
name = topleft;
pos = (20,650);
}
);
backgroundImage = {
imagePath = "../../../projects/o-r-g/castello/castello/png/FGHIJ.png";
locked = 1;
pos = (-1460,-1364);
scale = (4.1,4.1);
};
layerId = m01;
shapes = (
{
closed = 1;
nodes = (
(25,0,l),
(175,0,l),
(175,650,l),
(25,650,l)
);
}
);
width = 200;
}
);
metricLeft = H;
metricRight = H;
unicode = 73;
},
{
glyphname = J;
kernLeft = J;
kernRight = J;
lastChange = "2025-04-23 15:12:12 +0000";
layers = (
{
anchors = (
{
name = bottom;
pos = (220,0);
},
{
name = top;
pos = (340,650);
}
);
background = {
hints = (
{
name = _corner.ROUND;
type = Corner;
},
{
name = _corner.ROUND;
scale = (1.08,1.08);
type = Corner;
},
{
name = _corner.ROUND;
scale = (0.3,0.3);
type = Corner;
},
{
name = _corner.ROUND;
options = 2;
scale = (-0.3,0.3);
type = Corner;
},
{
name = _corner.ROUND;
origin = (0,0);
scale = (0.3,0.3);
type = Corner;
},
{
name = _corner.ROUND;
options = 2;
origin = (0,1);
scale = (-0.3,0.3);
type = Corner;
},
{
name = _corner.ROUND;
origin = (0,4);
type = Corner;
},
{
name = _corner.ROUND;
origin = (0,5);
scale = (1.08,1.08);
type = Corner;
}
);
shapes = (
{
closed = 1;
nodes = (
(267,110,l),
(167,110,l),
(167,255,l),
(17,255,l),
(17,0,l),
(417,0,l),
(417,700,l),
(267,700,l)
);
}
);
};
backgroundImage = {
imagePath = "../../../projects/o-r-g/castello/castello/png/FGHIJ.png";
locked = 1;
pos = (-1886,-1364);
scale = (4.1,4.1);
};
hints = (
{
name = _corner.ROUND;
origin = (0,4);
type = Corner;
},
{
name = _corner.ROUND;
origin = (0,5);
scale = (1.08,1.08);
type = Corner;
},
{
name = _corner.ROUND;
origin = (0,0);
scale = (0.3,0.3);
type = Corner;
},
{
name = _corner.ROUND;
options = 2;
origin = (0,1);
scale = (-0.3,0.3);
type = Corner;
}
);
layerId = m01;
shapes = (
{
closed = 1;
nodes = (
(267,110,l),
(167,110,l),
(167,230,l),
(17,230,l),
(17,0,l),
(417,0,l),
(417,650,l),
(267,650,l)
);
}
);
width = 439;
}
);
metricLeft = "=O*.75";
metricRight = O;
unicode = 74;
},
{
glyphname = K;
kernLeft = H;
kernRight = K;
lastChange = "2025-04-27 22:03:28 +0000";
layers = (
{
background = {
shapes = (
{
closed = 1;
nodes = (
(445,700,l),
(305,700,l),
(145,350,l),
(285,350,l)
);
},
{
closed = 1;
nodes = (
(25,0,l),
(175,0,l),
(175,700,l),
(25,700,l)
);
},
{
closed = 1;
nodes = (
(145,350,l),
(305,0,l),
(445,0,l),
(285,350,l)
);
}
);
};
backgroundImage = {
imagePath = "../../../projects/o-r-g/castello/castello/png/KLMN.png";
locked = 1;
pos = (-236,-1449);
scale = (4.4,4.4);
};
layerId = m01;
shapes = (
{
closed = 1;
nodes = (
(455,650,l),
(305,650,l),
(145,325,l),
(295,325,l)
);
},
{
closed = 1;
nodes = (
(25,0,l),
(175,0,l),
(175,650,l),
(25,650,l)
);
},
{
closed = 1;
nodes = (
(145,325,l),
(305,0,l),
(455,0,l),
(295,325,l)
);
}
);
width = 466;
}
);
metricLeft = H;
metricRight = "=O*.5";
unicode = 75;
},
{
glyphname = L;
kernLeft = H;
kernRight = L;
lastChange = "2025-04-23 17:11:17 +0000";
layers = (
{
background = {
shapes = (
{
closed = 1;
nodes = (
(25,0,l),
(175,0,l),
(175,700,l),
(25,700,l)
);
},
{
closed = 1;
nodes = (
(175,0,l),
(315,0,l),
(315,110,l),
(175,110,l)
);
}
);
};
backgroundImage = {
imagePath = "../../../projects/o-r-g/castello/castello/png/KLMN.png";
locked = 1;
pos = (-780,-1449);
scale = (4.4,4.4);
};
layerId = m01;
shapes = (
{
closed = 1;
nodes = (
(25,0,l),
(175,0,l),
(175,650,l),
(25,650,l)
);
},
{
closed = 1;
nodes = (
(175,0,l),
(315,0,l),
(315,110,l),
(175,110,l)
);
}
);
width = 332;
}
);
metricLeft = H;
metricRight = "=O*.75";
unicode = 76;
},
{
glyphname = M;
kernLeft = M;
kernRight = M;
lastChange = "2025-04-27 22:04:01 +0000";
layers = (
{
anchors = (
{
name = bottom;
pos = (315,0);
},
{
name = top;
pos = (315,650);
}
);
background = {
shapes = (
{
closed = 1;
nodes = (
(34,0,l),
(184,0,l),
(184,700,l),
(34,700,l)
);
},
{
closed = 1;
nodes = (
(369,0,l),
(254,700,l),
(144,700,l),
(259,0,l)
);
},
{
closed = 1;
nodes = (
(444,700,l),
(444,0,l),
(594,0,l),
(594,700,l)
);
},
{
closed = 1;
nodes = (
(484,700,l),
(374,700,l),
(259,0,l),
(369,0,l)
);
},
{
closed = 1;
nodes = (
(24,0,l),
(174,0,l),
(174,700,l),
(24,700,l)
);
},
{
closed = 1;
nodes = (
(374,0,l),
(244,700,l),
(129,700,l),
(254,0,l)
);
},
{
closed = 1;
nodes = (
(454,700,l),
(454,0,l),
(604,0,l),
(604,700,l)
);
},
{
closed = 1;
nodes = (
(499,700,l),
(384,700,l),
(254,0,l),
(374,0,l)
);
},
{
closed = 1;
nodes = (
(24,0,l),
(174,0,l),
(174,700,l),
(24,700,l)
);
},
{
closed = 1;
nodes = (
(374,0,l),
(244,700,l),
(129,700,l),
(254,0,l)
);
},
{
closed = 1;
nodes = (
(454,700,l),
(454,0,l),
(604,0,l),
(604,700,l)
);
},
{
closed = 1;
nodes = (
(499,700,l),
(384,700,l),
(254,0,l),
(374,0,l)
);
},
{
closed = 1;
nodes = (
(24,0,l),
(174,0,l),
(174,700,l),
(24,700,l)
);
},
{
closed = 1;
nodes = (
(374,0,l),
(244,700,l),
(129,700,l),
(254,0,l)
);
},
{
closed = 1;
nodes = (
(454,700,l),
(454,0,l),
(604,0,l),
(604,700,l)
);
},
{
closed = 1;
nodes = (
(499,700,l),
(384,700,l),
(254,0,l),
(374,0,l)
);
},
{
closed = 1;
nodes = (
(24,0,l),
(174,0,l),
(174,700,l),
(24,700,l)
);
},
{
closed = 1;
nodes = (
(374,0,l),
(244,700,l),
(129,700,l),
(254,0,l)
);
},
{
closed = 1;
nodes = (
(454,700,l),
(454,0,l),
(604,0,l),
(604,700,l)
);
},
{
closed = 1;
nodes = (
(499,700,l),
(384,700,l),
(254,0,l),
(374,0,l)
);
},
{
closed = 1;
nodes = (
(24,0,l),
(174,0,l),
(174,700,l),
(24,700,l)
);
},
{
closed = 1;
nodes = (
(374,0,l),
(244,700,l),
(129,700,l),
(254,0,l)
);
},
{
closed = 1;
nodes = (
(454,700,l),
(454,0,l),
(604,0,l),
(604,700,l)
);
},
{
closed = 1;
nodes = (
(499,700,l),
(384,700,l),
(254,0,l),
(374,0,l)
);
},
{
closed = 1;
nodes = (
(24,0,l),
(174,0,l),
(174,700,l),
(24,700,l)
);
},
{
closed = 1;
nodes = (
(374,0,l),
(244,700,l),
(129,700,l),
(254,0,l)
);
},
{
closed = 1;
nodes = (
(454,700,l),
(454,0,l),
(604,0,l),
(604,700,l)
);
},
{
closed = 1;
nodes = (
(499,700,l),
(384,700,l),
(254,0,l),
(374,0,l)
);
},
{
closed = 1;
nodes = (
(24,0,l),
(174,0,l),
(174,700,l),
(24,700,l)
);
},
{
closed = 1;
nodes = (
(374,0,l),
(244,700,l),
(129,700,l),
(254,0,l)
);
},
{
closed = 1;
nodes = (
(454,700,l),
(454,0,l),
(604,0,l),
(604,700,l)
);
},
{
closed = 1;
nodes = (
(499,700,l),
(384,700,l),
(254,0,l),
(374,0,l)
);
}
);
};
layerId = m01;
shapes = (
{
closed = 1;
nodes = (
(25,0,l),
(175,0,l),
(175,650,l),
(25,650,l)
);
},
{
closed = 1;
nodes = (
(375,0,l),
(245,650,l),
(130,650,l),
(255,0,l)
);
},
{
closed = 1;
nodes = (
(455,650,l),
(455,0,l),
(605,0,l),
(605,650,l)
);
},
{
closed = 1;
nodes = (
(500,650,l),
(385,650,l),
(255,0,l),
(375,0,l)
);
}
);
width = 630;
}
);
metricLeft = H;
metricRight = H;
metricWidth = 638N;
unicode = 77;
},
{
glyphname = N;
kernLeft = H;
kernRight = H;
lastChange = "2025-04-23 15:13:19 +0000";
layers = (
{
anchors = (
{
name = bottom;
pos = (253,0);
},
{
name = top;
pos = (253,650);
}
);
backgroundImage = {
imagePath = "../../../projects/o-r-g/castello/castello/png/KLMN.png";
pos = (-1931,-1449);
scale = (4.4,4.4);
};
layerId = m01;
shapes = (
{
closed = 1;
nodes = (
(25,0,l),
(175,0,l),
(175,650,l),
(25,650,l)
);
},
{
closed = 1;
nodes = (
(460,0,l),
(175,650,l),
(35,650,l),
(330,0,l)
);
},
{
closed = 1;
nodes = (
(330,0,l),
(480,0,l),
(480,650,l),
(330,650,l)
);
}
);
width = 505;
}
);
metricLeft = "=H";
metricRight = "=H";
unicode = 78;
},
{
glyphname = O;
kernLeft = O;
kernRight = O;
lastChange = "2025-04-23 17:17:11 +0000";
layers = (
{
anchors = (
{
name = bottom;
pos = (222,0);
},
{
name = center;
pos = (222,325);
},
{
name = ogonek;
pos = (400,10);
},
{
name = top;
pos = (222,650);
},
{
name = topleft;
pos = (20,650);
},
{
name = topright;
pos = (424,650);
}
);
backgroundImage = {
imagePath = "../../../projects/o-r-g/castello/castello/png/OPQRS.png";
locked = 1;
pos = (-101,-1581);
scale = (4.6,4.6);
};
hints = (
{
name = _corner.ROUND;
origin = (0,1);
type = Corner;
},
{
name = _corner.ROUND;
origin = (0,2);
type = Corner;
},
{
name = _corner.ROUND;
origin = (1,0);
scale = (0.3,0.3);
type = Corner;
},
{
name = _corner.ROUND;
options = 2;
origin = (1,3);
scale = (-0.3,0.3);
type = Corner;
},
{
name = _corner.ROUND;
origin = (1,1);
scale = (0.3,0.3);
type = Corner;
},
{
name = _corner.ROUND;
options = 2;
origin = (1,2);
scale = (-0.3,0.3);
type = Corner;
},
{
name = _corner.ROUND;
origin = (0,3);
type = Corner;
},
{
name = _corner.ROUND;
origin = (0,0);
type = Corner;
}
);
layerId = m01;
shapes = (
{
closed = 1;
nodes = (
(22,0,l),
(422,0,l),
(422,650,l),
(22,650,l)
);
},
{
closed = 1;
nodes = (
(272,110,l),
(172,110,l),
(172,540,l),
(272,540,l)
);
}
);
width = 444;
}
);
unicode = 79;
},
{
glyphname = OE;
kernLeft = O;
kernRight = E;
lastChange = "2025-05-01 12:59:45 +0000";
layers = (
{
anchors = (
{
name = bottom;
pos = (225,0);
},
{
name = center;
pos = (225,325);
},
{
name = ogonek;
pos = (403,10);
},
{
name = top;
pos = (225,650);
},
{
name = topleft;
pos = (23,650);
},
{
name = topright;
pos = (427,650);
}
);
hints = (
{
name = _corner.ROUND;
origin = (1,0);
scale = (0.3,0.3);
type = Corner;
},
{
name = _corner.ROUND;
options = 2;
origin = (1,3);
scale = (-0.3,0.3);
type = Corner;
},
{
name = _corner.ROUND;
origin = (1,1);
scale = (0.3,0.3);
type = Corner;
},
{
name = _corner.ROUND;
options = 2;
origin = (1,2);
scale = (-0.3,0.3);
type = Corner;
},
{
name = _corner.ROUND;
origin = (0,5);
type = Corner;
},
{
name = _corner.ROUND;
origin = (0,0);
type = Corner;
},
{
name = _segment.CUT;
options = 1;
origin = (0,2);
scale = (-1,1);
type = Segment;
},
{
name = _segment.CUT;
origin = (0,4);
type = Segment;
}
);
layerId = m01;
shapes = (
{
closed = 1;
nodes = (
(25,0,l),
(195,0,l),
(275,0,l),
(275,650,l),
(195,650,l),
(25,650,l)
);
},
{
closed = 1;
nodes = (
(275,110,l),
(175,110,l),
(175,540,l),
(275,540,l)
);
},
{
closed = 1;
nodes = (
(275,0,l),
(425,0,l),
(425,650,l),
(275,650,l)
);
},
{
closed = 1;
nodes = (
(425,270,l),
(565,270,l),
(565,380,l),
(425,380,l)
);
},
{
closed = 1;
nodes = (
(425,540,l),
(565,540,l),
(565,650,l),
(425,650,l)
);
},
{
closed = 1;
nodes = (
(425,0,l),
(565,0,l),
(565,110,l),
(425,110,l)
);
}
);
width = 590;
}
);
metricLeft = "=H";
metricRight = "=H";
unicode = 338;
},
{
glyphname = P;
kernLeft = H;
kernRight = P;
lastChange = "2025-04-23 15:16:18 +0000";
layers = (
{
anchors = (
{
name = bottom;
pos = (221,0);
},
{
name = top;
pos = (221,650);
}
);
backgroundImage = {
imagePath = "../../../projects/o-r-g/castello/castello/png/OPQRS.png";
pos = (-650,-1571);
scale = (4.6,4.6);
};
hints = (
{
name = _corner.ROUND;
origin = (0,3);
scale = (1.08,1.08);
type = Corner;
},
{
name = _corner.ROUND;
origin = (0,4);
scale = (1.08,1.08);
type = Corner;
},
{
name = _corner.ROUND;
origin = (1,0);
scale = (0.3,0.3);
type = Corner;
},
{
name = _corner.ROUND;
options = 2;
origin = (1,3);
scale = (-0.3,0.3);
type = Corner;
}
);
layerId = m01;
shapes = (
{
closed = 1;
nodes = (
(25,0,l),
(175,0,l),
(175,270,l),
(425,270,l),
(425,650,l),
(25,650,l)
);
},
{
closed = 1;
nodes = (
(275,380,l),
(175,380,l),
(175,540,l),
(275,540,l)
);
}
);
width = 442;
}
);
metricLeft = H;
metricRight = "=O*.75";
unicode = 80;
},
{
glyphname = Thorn;
kernLeft = H;
kernRight = Thorn;
lastChange = "2025-04-28 00:24:20 +0000";
layers = (
{
anchors = (
{
name = bottom;
pos = (224,0);
},
{
name = top;
pos = (224,650);
}
);
hints = (
{
name = _corner.ROUND;
origin = (0,1);
scale = (1.08,1.08);
type = Corner;
},
{
name = _corner.ROUND;
origin = (0,2);
scale = (1.08,1.08);
type = Corner;
},
{
name = _corner.ROUND;
origin = (1,0);
scale = (0.3,0.3);
type = Corner;
},
{
name = _corner.ROUND;
options = 2;
origin = (1,3);
scale = (-0.3,0.3);
type = Corner;
}
);
layerId = m01;
shapes = (
{
closed = 1;
nodes = (
(25,125,l),
(425,125,l),
(425,500,l),
(25,500,l)
);
},
{
closed = 1;
nodes = (
(275,235,l),
(175,235,l),
(175,390,l),
(275,390,l)
);
},
{
closed = 1;
nodes = (
(25,0,l),
(175,0,l),
(175,650,l),
(25,650,l)
);
}
);
width = 447;
}
);
metricLeft = "=H";
metricRight = "=O";
unicode = 222;
},
{
glyphname = Q;
kernLeft = O;
kernRight = Q;
lastChange = "2025-04-25 15:57:02 +0000";
layers = (
{
anchors = (
{
name = bottom;
pos = (233,0);
},
{
name = top;
pos = (233,650);
}
);
backgroundImage = {
imagePath = "../../../projects/o-r-g/castello/castello/png/OPQRS.png";
pos = (-1193,-1571);
scale = (4.6,4.6);
};
hints = (
{
name = _corner.ROUND;
origin = (0,0);
type = Corner;
},
{
name = _corner.ROUND;
origin = (0,1);
type = Corner;
},
{
name = _corner.ROUND;
origin = (0,2);
type = Corner;
},
{
name = _corner.ROUND;
origin = (0,3);
type = Corner;
},
{
name = _corner.ROUND;
origin = (1,0);
scale = (0.3,0.3);
type = Corner;
},
{
name = _corner.ROUND;
origin = (1,1);
scale = (0.3,0.3);
type = Corner;
},
{
name = _corner.ROUND;
options = 2;
origin = (1,2);
scale = (-0.3,0.3);
type = Corner;
},
{
name = _corner.ROUND;
options = 2;
origin = (1,3);
scale = (-0.3,0.3);
type = Corner;
}
);
layerId = m01;
shapes = (
{
closed = 1;
nodes = (
(22,0,l),
(422,0,l),
(422,650,l),
(22,650,l)
);
},
{
closed = 1;
nodes = (
(272,110,l),
(172,110,l),
(172,540,l),
(272,540,l)
);
},
{
closed = 1;
nodes = (
(385,-39,l),
(463,39,l),
(385,117,l),
(307,39,l)
);
}
);
width = 466;
}
);
metricLeft = O;
metricRight = "=O*.125";
unicode = 81;
},
{
glyphname = R;
kernLeft = H;
kernRight = R;
lastChange = "2025-04-23 15:16:11 +0000";
layers = (
{
anchors = (
{
name = bottom;
pos = (224,0);
},
{
name = top;
pos = (224,650);
}
);
background = {
hints = (
{
name = _corner.ROUND;
options = 2;
scale = (-0.3,0.3);
type = Corner;
},
{
name = _corner.ROUND;
scale = (0.8,0.8);
type = Corner;
},
{
name = _corner.ROUND;
scale = (0.8,0.8);
type = Corner;
},
{
name = _corner.ROUND;
scale = (0.3,0.3);
type = Corner;
},
{
name = _corner.ROUND;
options = 2;
scale = (-0.3,0.3);
type = Corner;
},
{
name = _corner.ROUND;
options = 2;
origin = (0,3);
scale = (-0.3,0.3);
type = Corner;
},
{
name = _segment.DOUBLECUT;
origin = (0,7);
type = Segment;
},
{
name = _corner.ROUND;
origin = (0,8);
scale = (0.8,0.8);
type = Corner;
},
{
name = _corner.ROUND;
origin = (1,0);
scale = (0.3,0.3);
type = Corner;
},
{
name = _corner.ROUND;
options = 2;
origin = (1,3);
scale = (-0.3,0.3);
type = Corner;
}
);
shapes = (
{
closed = 1;
nodes = (
(25,0,l),
(175,0,l),
(175,295,l),
(275,295,l),
(275,0,l),
(425,0,l),
(425,248,l),
(425,452,l),
(425,700,l),
(25,700,l)
);
},
{
closed = 1;
nodes = (
(275,405,l),
(175,405,l),
(175,590,l),
(275,590,l)
);
}
);
};
backgroundImage = {
imagePath = "../../../projects/o-r-g/castello/castello/png/OPQRS.png";
locked = 1;
pos = (-1710,-1561);
scale = (4.6,4.6);
};
hints = (
{
name = _corner.ROUND;
origin = (0,8);
scale = (1.08,1.08);
type = Corner;
},
{
name = _corner.ROUND;
origin = (1,0);
scale = (0.3,0.3);
type = Corner;
},
{
name = _corner.ROUND;
options = 2;
origin = (1,3);
scale = (-0.3,0.3);
type = Corner;
},
{
name = _corner.ROUND;
origin = (0,8);
scale = (0.8,0.8);
type = Corner;
},
{
name = _corner.ROUND;
options = 2;
origin = (0,3);
scale = (-0.3,0.3);
type = Corner;
},
{
name = _segment.DOUBLECUT;
origin = (0,7);
type = Segment;
}
);
layerId = m01;
shapes = (
{
closed = 1;
nodes = (
(25,0,l),
(175,0,l),
(175,270,l),
(275,270,l),
(275,0,l),
(425,0,l),
(425,223,l),
(425,427,l),
(425,650,l),
(25,650,l)
);
},
{
closed = 1;
nodes = (
(275,380,l),
(175,380,l),
(175,540,l),
(275,540,l)
);
}
);
width = 447;
}
);
metricLeft = H;
metricRight = O;
unicode = 82;
},
{
glyphname = S;
kernLeft = S;
kernRight = S;
lastChange = "2025-04-23 17:58:15 +0000";
layers = (
{
anchors = (
{
name = bottom;
pos = (222,0);
},
{
name = top;
pos = (222,650);
}
);
background = {
hints = (
{
name = _corner.ROUND;
type = Corner;
},
{
name = _corner.ROUND;
scale = (0.3,0.3);
type = Corner;
},
{
name = _corner.ROUND;
options = 2;
scale = (-0.3,0.3);
type = Corner;
},
{
name = _corner.ROUND;
scale = (1.08,1.08);
type = Corner;
},
{
name = _corner.ROUND;
type = Corner;
},
{
name = _corner.ROUND;
options = 1;
scale = (0.5,0.5);
type = Corner;
},
{
name = _corner.ROUND;
type = Corner;
},
{
name = _corner.ROUND;
options = 2;
scale = (-0.3,0.3);
type = Corner;
},
{
name = _corner.ROUND;
scale = (0.3,0.3);
type = Corner;
},
{
name = _corner.ROUND;
type = Corner;
},
{
name = _corner.ROUND;
scale = (1.08,1.08);
type = Corner;
},
{
name = _corner.ROUND;
options = 1;
scale = (0.5,0.5);
type = Corner;
},
{
name = _corner.ROUND;
type = Corner;
},
{
name = _corner.ROUND;
scale = (0.3,0.3);
type = Corner;
},
{
name = _corner.ROUND;
options = 2;
scale = (-0.3,0.3);
type = Corner;
},
{
name = _corner.ROUND;
scale = (1.08,1.08);
type = Corner;
},
{
name = _corner.ROUND;
type = Corner;
},
{
name = _corner.ROUND;
options = 1;
scale = (0.5,0.5);
type = Corner;
},
{
name = _corner.ROUND;
type = Corner;
},
{
name = _corner.ROUND;
options = 2;
scale = (-0.3,0.3);
type = Corner;
},
{
name = _corner.ROUND;
scale = (0.3,0.3);
type = Corner;
},
{
name = _corner.ROUND;
type = Corner;
},
{
name = _corner.ROUND;
scale = (1.08,1.08);
type = Corner;
},
{
name = _corner.ROUND;
options = 1;
scale = (0.5,0.5);
type = Corner;
},
{
name = _corner.ROUND;
scale = (0.3,0.3);
type = Corner;
},
{
name = _corner.ROUND;
options = 2;
scale = (-0.3,0.3);
type = Corner;
},
{
name = _corner.ROUND;
scale = (1.08,1.08);
type = Corner;
},
{
name = _corner.ROUND;
type = Corner;
},
{
name = _corner.ROUND;
options = 2;
scale = (-0.3,0.3);
type = Corner;
},
{
name = _corner.ROUND;
scale = (0.3,0.3);
type = Corner;
},
{
name = _corner.ROUND;
type = Corner;
},
{
name = _corner.ROUND;
scale = (1.08,1.08);
type = Corner;
},
{
name = _corner.ROUND;
scale = (0.3,0.3);
type = Corner;
},
{
name = _corner.ROUND;
options = 2;
scale = (-0.3,0.3);
type = Corner;
},
{
name = _corner.ROUND;
scale = (1.08,1.08);
type = Corner;
},
{
name = _corner.ROUND;
type = Corner;
},
{
name = _corner.ROUND;
options = 2;
scale = (-0.3,0.3);
type = Corner;
},
{
name = _corner.ROUND;
scale = (0.3,0.3);
type = Corner;
},
{
name = _corner.ROUND;
type = Corner;
},
{
name = _corner.ROUND;
scale = (1.08,1.08);
type = Corner;
},
{
name = _corner.ROUND;
origin = (0,2);
scale = (0.3,0.3);
type = Corner;
},
{
name = _corner.ROUND;
options = 2;
origin = (0,3);
scale = (-0.3,0.3);
type = Corner;
},
{
name = _corner.ROUND;
origin = (0,6);
scale = (1.08,1.08);
type = Corner;
},
{
name = _corner.ROUND;
origin = (0,7);
type = Corner;
},
{
name = _corner.ROUND;
options = 2;
origin = (0,12);
scale = (-0.3,0.3);
type = Corner;
},
{
name = _corner.ROUND;
origin = (0,13);
scale = (0.3,0.3);
type = Corner;
},
{
name = _corner.ROUND;
origin = (0,16);
type = Corner;
},
{
name = _corner.ROUND;
origin = (0,17);
scale = (1.08,1.08);
type = Corner;
}
);
shapes = (
{
closed = 1;
nodes = (
(171,419,o),
(172,515,c),
(172,590,l),
(272,590,l),
(272,485,l),
(422,485,l),
(422,700,l),
(22,700,l),
(22,495,l),
(22,321,o),
(273,295,o),
(272,185,c),
(272,110,l),
(172,110,l),
(172,215,l),
(22,215,l),
(22,0,l),
(422,0,l),
(422,205,l),
(422,386,o)
);
}
);
};
backgroundImage = {
imagePath = "../../../projects/o-r-g/castello/castello/png/OPQRS.png";
locked = 1;
pos = (-2243,-1547);
scale = (4.6,4.6);
};
hints = (
{
name = _corner.ROUND;
origin = (0,6);
scale = (1.08,1.08);
type = Corner;
},
{
name = _corner.ROUND;
origin = (0,7);
scale = (1.08,1.08);
type = Corner;
},
{
name = _corner.ROUND;
origin = (0,2);
scale = (0.3,0.3);
type = Corner;
},
{
name = _corner.ROUND;
options = 2;
origin = (0,3);
scale = (-0.3,0.3);
type = Corner;
},
{
name = _corner.ROUND;
origin = (0,13);
scale = (0.3,0.3);
type = Corner;
},
{
name = _corner.ROUND;
options = 2;
origin = (0,12);
scale = (-0.3,0.3);
type = Corner;
},
{
name = _corner.ROUND;
origin = (0,17);
scale = (1.08,1.08);
type = Corner;
},
{
name = _corner.ROUND;
origin = (0,16);
scale = (1.08,1.08);
type = Corner;
}
);
layerId = m01;
shapes = (
{
closed = 1;
nodes = (
(171,385,o),
(172,475,c),
(172,540,l),
(272,540,l),
(272,445,l),
(422,445,l),
(422,650,l),
(22,650,l),
(22,475,l),
(22,261,o),
(272,265,o),
(272,175,c),
(272,110,l),
(172,110,l),
(172,205,l),
(22,205,l),
(22,0,l),
(422,0,l),
(422,175,l),
(421,349,o)
);
}
);
width = 444;
}
);
metricLeft = O;
metricRight = O;
unicode = 83;
},
{
glyphname = Germandbls;
kernLeft = Germandbls;
kernRight = Germandbls;
lastChange = "2025-05-01 13:00:07 +0000";
layers = (
{
anchors = (
{
name = bottom;
pos = (249,0);
},
{
name = top;
pos = (249,650);
}
);
hints = (
{
name = _corner.ROUND;
origin = (0,12);
scale = (1.08,1.08);
type = Corner;
},
{
name = _corner.ROUND;
origin = (0,15);
type = Corner;
},
{
name = _corner.ROUND;
origin = (0,5);
scale = (0.3,0.3);
type = Corner;
},
{
name = _corner.ROUND;
options = 2;
origin = (0,4);
scale = (-0.3,0.3);
type = Corner;
},
{
name = _corner.ROUND;
origin = (0,9);
scale = (0.3,0.3);
type = Corner;
},
{
name = _corner.ROUND;
options = 2;
origin = (0,8);
scale = (-0.3,0.3);
type = Corner;
},
{
name = _segment.DOUBLECUT;
origin = (0,14);
type = Segment;
},
{
name = _corner.ROUND;
origin = (0,0);
scale = (1.2,1.2);
type = Corner;
},
{
name = _corner.ROUND;
origin = (0,3);
scale = (0.3,0.3);
type = Corner;
}
);
layerId = m01;
shapes = (
{
closed = 1;
nodes = (
(25,650,l),
(25,0,l),
(175,0,l),
(175,540,l),
(325,540,l),
(325,380,l),
(255,380,l),
(255,270,l),
(325,270,l),
(325,110,l),
(225,110,l),
(225,0,l),
(475,0,l),
(475,223,l),
(475,427,l),
(475,650,l)
);
}
);
width = 497;
}
);
metricLeft = "=H";
metricRight = "=O";
unicode = 7838;
},
{
glyphname = T;
kernLeft = T;
kernRight = T;
lastChange = "2025-05-01 15:34:02 +0000";
layers = (
{
anchors = (
{
name = bottom;
pos = (196,0);
},
{
name = center;
pos = (196,325);
},
{
name = top;
pos = (196,650);
}
);
background = {
shapes = (
{
closed = 1;
nodes = (
(271,590,l),
(411,590,l),
(412,700,l),
(271,700,l)
);
},
{
closed = 1;
nodes = (
(121,0,l),
(271,0,l),
(271,700,l),
(121,700,l)
);
},
{
closed = 1;
nodes = (
(-19,590,l),
(121,590,l),
(121,700,l),
(-20,700,l)
);
}
);
};
layerId = m01;
shapes = (
{
closed = 1;
nodes = (
(121,0,l),
(271,0,l),
(271,650,l),
(121,650,l)
);
},
{
closed = 1;
nodes = (
(271,540,l),
(381,540,l),
(381,650,l),
(271,650,l)
);
},
{
closed = 1;
nodes = (
(11,540,l),
(121,540,l),
(121,650,l),
(11,650,l)
);
}
);
width = 392;
}
);
metricLeft = "=O*.5";
metricRight = "=O*.5";
unicode = 84;
},
{
glyphname = U;
kernLeft = U;
kernRight = U;
lastChange = "2025-04-23 15:18:40 +0000";
layers = (
{
anchors = (
{
name = bottom;
pos = (222,0);
},
{
name = ogonek;
pos = (400,10);
},
{
name = top;
pos = (222,650);
},
{
name = topright;
pos = (424,650);
}
);
backgroundImage = {
imagePath = "../../../projects/o-r-g/castello/castello/png/TUVW.png";
pos = (-550,-1342);
scale = (4.15,4.15);
};
hints = (
{
name = _corner.ROUND;
origin = (0,0);
type = Corner;
},
{
name = _corner.ROUND;
origin = (0,1);
type = Corner;
},
{
name = _corner.ROUND;
origin = (0,4);
scale = (0.3,0.3);
type = Corner;
},
{
name = _corner.ROUND;
origin = (0,5);
scale = (0.3,0.3);
type = Corner;
}
);
layerId = m01;
shapes = (
{
closed = 1;
nodes = (
(22,0,l),
(422,0,l),
(422,650,l),
(272,650,l),
(272,110,l),
(172,110,l),
(172,650,l),
(22,650,l)
);
}
);
width = 444;
}
);
metricLeft = O;
metricRight = O;
unicode = 85;
},
{
glyphname = V;
kernLeft = V;
kernRight = V;
lastChange = "2025-04-23 17:31:51 +0000";
layers = (
{
anchors = (
{
name = bottom;
pos = (226,0);
},
{
name = top;
pos = (226,650);
}
);
background = {
shapes = (
{
closed = 1;
nodes = (
(255,0,l),
(141,700,l),
(1,700,l),
(125,0,l)
);
},
{
closed = 1;
nodes = (
(451,700,l),
(311,700,l),
(197,0,l),
(327,0,l)
);
}
);
};
layerId = m01;
shapes = (
{
closed = 1;
nodes = (
(326,0,l),
(441,650,l),
(291,650,l),
(226,175,l),
(161,650,l),
(11,650,l),
(126,0,l)
);
}
);
width = 452;
}
);
metricLeft = "=O*.5";
metricRight = "=O*.5";
unicode = 86;
},
{
glyphname = W;
kernLeft = W;
kernRight = W;
lastChange = "2025-04-23 17:33:31 +0000";
layers = (
{
anchors = (
{
name = bottom;
pos = (376,0);
},
{
name = top;
pos = (376,650);
}
);
background = {
shapes = (
{
closed = 1;
nodes = (
(261,0,l),
(146,700,l),
(-4,700,l),
(120,0,l)
);
},
{
closed = 1;
nodes = (
(451,700,l),
(301,700,l),
(182,0,l),
(322,0,l)
);
},
{
closed = 1;
nodes = (
(568,0,l),
(451,700,l),
(301,700,l),
(430,0,l)
);
},
{
closed = 1;
nodes = (
(756,700,l),
(606,700,l),
(492,0,l),
(632,0,l)
);
}
);
};
backgroundImage = {
imagePath = "../../../projects/o-r-g/castello/castello/png/TUVW.png";
pos = (-1614,-1342);
scale = (4.15,4.15);
};
layerId = m01;
shapes = (
{
closed = 1;
nodes = (
(326,0,l),
(376,313,l),
(426,0,l),
(616,0,l),
(741,650,l),
(591,650,l),
(518,175,l),
(451,650,l),
(301,650,l),
(234,175,l),
(161,650,l),
(11,650,l),
(136,0,l)
);
}
);
width = 752;
}
);
metricLeft = "=O*.5";
metricRight = "=O*.5";
unicode = 87;
},
{
glyphname = X;
kernLeft = X;
kernRight = X;
lastChange = "2025-04-23 15:19:57 +0000";
layers = (
{
anchors = (
{
name = bottom;
pos = (211,0);
},
{
name = top;
pos = (211,650);
}
);
background = {
shapes = (
{
closed = 1;
nodes = (
(411,0,l),
(151,700,l),
(11,700,l),
(271,0,l)
);
},
{
closed = 1;
nodes = (
(411,700,l),
(271,700,l),
(11,0,l),
(151,0,l)
);
}
);
};
backgroundImage = {
imagePath = "../../../projects/o-r-g/castello/castello/png/XYZ.png";
pos = (-558,-1455);
scale = (4.4,4.4);
};
layerId = m01;
shapes = (
{
closed = 1;
nodes = (
(411,0,l),
(281,325,l),
(411,650,l),
(271,650,l),
(211,475,l),
(151,650,l),
(11,650,l),
(141,325,l),
(11,0,l),
(151,0,l),
(211,175,l),
(271,0,l)
);
}
);
width = 422;
}
);
metricLeft = "=O*0.5";
metricRight = "=O*.5";
unicode = 88;
},
{
glyphname = Y;
kernLeft = Y;
kernRight = Y;
lastChange = "2025-04-23 15:20:54 +0000";
layers = (
{
anchors = (
{
name = bottom;
pos = (236,0);
},
{
name = top;
pos = (236,650);
},
{
name = topleft;
pos = (20,650);
}
);
background = {
shapes = (
{
closed = 1;
nodes = (
(168,0,l),
(308,0,l),
(306,230,l),
(166,230,l)
);
},
{
closed = 1;
nodes = (
(295,230,l),
(151,700,l),
(11,700,l),
(166,230,l)
);
},
{
closed = 1;
nodes = (
(462,700,l),
(322,700,l),
(178,230,l),
(306,230,l)
);
}
);
};
layerId = m01;
shapes = (
{
closed = 1;
nodes = (
(161,0,l),
(311,0,l),
(311,205,l),
(461,650,l),
(311,650,l),
(235,374,l),
(161,650,l),
(11,650,l),
(161,205,l)
);
}
);
width = 472;
}
);
metricLeft = "=O*.5";
metricRight = "=O*.5";
unicode = 89;
},
{
glyphname = Z;
kernLeft = Z;
kernRight = Z;
lastChange = "2025-04-23 15:20:50 +0000";
layers = (
{
anchors = (
{
name = bottom;
pos = (202,0);
},
{
name = center;
pos = (202,325);
},
{
name = top;
pos = (202,650);
}
);
background = {
shapes = (
{
closed = 0;
nodes = (
(417,700,l)
);
}
);
};
layerId = m01;
shapes = (
{
closed = 1;
nodes = (
(387,520,l),
(237,520,l),
(17,130,l),
(167,130,l)
);
},
{
closed = 1;
nodes = (
(17,520,l),
(387,520,l),
(387,650,l),
(17,650,l)
);
},
{
closed = 1;
nodes = (
(17,0,l),
(387,0,l),
(387,130,l),
(17,130,l)
);
}
);
width = 404;
}
);
metricLeft = "=O*.75";
metricRight = "=O*.75";
unicode = 90;
},
{
glyphname = a;
kernLeft = a;
kernRight = n;
lastChange = "2025-05-01 15:39:52 +0000";
layers = (
{
anchors = (
{
name = bottom;
pos = (206,0);
},
{
name = ogonek;
pos = (371,10);
},
{
name = top;
pos = (206,500);
}
);
hints = (
{
name = _corner.ROUND;
origin = (0,6);
scale = (0.3,0.3);
type = Corner;
},
{
name = _corner.ROUND;
options = 2;
origin = (0,5);
scale = (-0.3,0.3);
type = Corner;
},
{
name = _corner.ROUND;
origin = (0,2);
type = Corner;
},
{
name = _corner.ROUND;
origin = (0,1);
type = Corner;
},
{
name = _corner.ROUND;
options = 2;
origin = (1,1);
scale = (-0.2,0.2);
type = Corner;
},
{
name = _corner.ROUND;
origin = (1,0);
scale = (0.3,0.3);
type = Corner;
},
{
name = _corner.ROUND;
origin = (0,5);
scale = (0.3,0.3);
type = Corner;
},
{
name = _corner.ROUND;
origin = (0,6);
scale = (0.3,0.3);
type = Corner;
},
{
name = _corner.ROUND;
origin = (0,11);
scale = (0.75,0.75);
type = Corner;
},
{
name = _segment.CUT;
options = 1;
origin = (0,13);
scale = (-1,1);
type = Segment;
}
);
layerId = m01;
shapes = (
{
closed = 1;
nodes = (
(387,0,l),
(387,500,l),
(22,500,l),
(22,335,l),
(162,335,l),
(162,400,l),
(247,400,l),
(247,345,l),
(247,269,o),
(22,326,o),
(22,160,c),
(22,0,l),
(162,0,l),
(247,0,l)
);
},
{
closed = 1;
nodes = (
(247,100,l),
(162,100,l),
(162,170,ls),
(162,207,o),
(201,215,o),
(247,225,c)
);
}
);
width = 412;
}
);
metricLeft = "=o";
metricRight = "=h";
unicode = 97;
},
{
glyphname = ae;
kernLeft = a;
kernRight = e;
lastChange = "2025-05-01 14:52:19 +0000";
layers = (
{
anchors = (
{
name = bottom;
pos = (206,0);
},
{
name = ogonek;
pos = (371,10);
},
{
name = top;
pos = (206,500);
}
);
hints = (
{
name = _corner.ROUND;
origin = (0,6);
scale = (0.3,0.3);
type = Corner;
},
{
name = _corner.ROUND;
options = 2;
origin = (0,5);
scale = (-0.3,0.3);
type = Corner;
},
{
name = _corner.ROUND;
origin = (0,2);
type = Corner;
},
{
name = _corner.ROUND;
origin = (0,1);
type = Corner;
},
{
name = _corner.ROUND;
options = 2;
origin = (1,1);
scale = (-0.2,0.2);
type = Corner;
},
{
name = _corner.ROUND;
origin = (1,0);
scale = (0.3,0.3);
type = Corner;
},
{
name = _corner.ROUND;
origin = (0,5);
scale = (0.3,0.3);
type = Corner;
},
{
name = _corner.ROUND;
origin = (0,6);
scale = (0.3,0.3);
type = Corner;
},
{
name = _corner.ROUND;
origin = (0,11);
scale = (0.75,0.75);
type = Corner;
},
{
name = _segment.DOUBLECUT;
origin = (0,0);
type = Segment;
},
{
name = _corner.ROUND;
type = Corner;
},
{
name = _corner.ROUND;
options = 2;
scale = (-0.3,0.3);
type = Corner;
},
{
name = _corner.ROUND;
options = 2;
scale = (-0.3,0.3);
type = Corner;
},
{
name = _corner.ROUND;
type = Corner;
},
{
name = _corner.ROUND;
type = Corner;
},
{
name = _corner.ROUND;
type = Corner;
},
{
name = _corner.ROUND;
scale = (0.3,0.3);
type = Corner;
},
{
name = _corner.ROUND;
scale = (0.3,0.3);
type = Corner;
},
{
name = _corner.ROUND;
origin = (2,0);
scale = (1.08,1.08);
type = Corner;
},
{
name = _corner.ROUND;
origin = (2,1);
scale = (1.08,1.08);
type = Corner;
},
{
name = _corner.ROUND;
origin = (2,2);
scale = (1.08,1.08);
type = Corner;
},
{
name = _corner.ROUND;
origin = (2,9);
scale = (1.08,1.08);
type = Corner;
},
{
name = _corner.ROUND;
origin = (2,5);
scale = (0.3,0.3);
type = Corner;
},
{
name = _corner.ROUND;
origin = (2,6);
scale = (0.3,0.3);
type = Corner;
},
{
name = _corner.ROUND;
options = 2;
origin = (3,2);
scale = (-0.3,0.3);
type = Corner;
},
{
name = _corner.ROUND;
options = 2;
origin = (3,3);
scale = (-0.3,0.3);
type = Corner;
}
);
layerId = m01;
shapes = (
{
closed = 1;
nodes = (
(387,0,l),
(387,500,l),
(22,500,l),
(22,335,l),
(162,335,l),
(162,400,l),
(247,400,l),
(247,345,l),
(247,269,o),
(22,326,o),
(22,160,c),
(22,0,l),
(162,0,l)
);
},
{
closed = 1;
nodes = (
(247,100,l),
(162,100,l),
(162,170,ls),
(162,207,o),
(201,215,o),
(247,225,c)
);
},
{
closed = 1;
nodes = (
(247,500,l),
(247,0,l),
(612,0,l),
(612,159,l),
(472,159,l),
(472,100,l),
(387,100,l),
(387,216,l),
(612,216,l),
(612,500,l)
);
},
{
closed = 1;
nodes = (
(472,296,l),
(387,296,l),
(387,400,l),
(472,400,l)
);
}
);
width = 634;
}
);
metricLeft = "=o";
metricRight = "=o";
unicode = 230;
},
{
glyphname = b;
kernLeft = h;
kernRight = o;
lastChange = "2025-04-23 17:17:38 +0000";
layers = (
{
anchors = (
{
name = bottom;
pos = (206,0);
},
{
name = center;
pos = (103,620);
},
{
name = top;
pos = (206,500);
}
);
background = {
hints = (
{
name = _segment.CUT;
type = Segment;
},
{
name = _corner.ROUND;
type = Corner;
},
{
name = _corner.ROUND;
type = Corner;
},
{
name = _segment.CUT;
options = 1;
scale = (-1,1);
type = Segment;
},
{
name = _corner.ROUND;
scale = (0.3,0.3);
type = Corner;
},
{
name = _corner.ROUND;
scale = (0.3,0.3);
type = Corner;
},
{
name = _corner.ROUND;
options = 2;
scale = (-0.3,0.3);
type = Corner;
},
{
name = _corner.ROUND;
options = 2;
scale = (-0.3,0.3);
type = Corner;
},
{
name = _segment.CUT;
type = Segment;
},
{
name = _corner.ROUND;
type = Corner;
},
{
name = _corner.ROUND;
type = Corner;
},
{
name = _segment.CUT;
options = 1;
scale = (-1,1);
type = Segment;
},
{
name = _corner.ROUND;
scale = (0.3,0.3);
type = Corner;
},
{
name = _corner.ROUND;
scale = (0.3,0.3);
type = Corner;
},
{
name = _corner.ROUND;
options = 2;
scale = (-0.3,0.3);
type = Corner;
},
{
name = _corner.ROUND;
options = 2;
scale = (-0.3,0.3);
type = Corner;
},
{
name = _segment.CUT;
origin = (0,1);
type = Segment;
},
{
name = _corner.ROUND;
origin = (0,2);
type = Corner;
},
{
name = _corner.ROUND;
origin = (0,3);
type = Corner;
},
{
name = _segment.CUT;
options = 1;
origin = (0,5);
scale = (-1,1);
type = Segment;
},
{
name = _corner.ROUND;
origin = (1,0);
scale = (0.3,0.3);
type = Corner;
},
{
name = _corner.ROUND;
origin = (1,1);
scale = (0.3,0.3);
type = Corner;
},
{
name = _corner.ROUND;
options = 2;
origin = (1,2);
scale = (-0.3,0.3);
type = Corner;
},
{
name = _corner.ROUND;
options = 2;
origin = (1,3);
scale = (-0.3,0.3);
type = Corner;
}
);
shapes = (
{
closed = 1;
nodes = (
(165,0,l),
(250,0,l),
(390,0,l),
(390,530,l),
(250,530,l),
(165,530,l),
(165,700,l),
(25,700,l),
(25,0,l)
);
},
{
closed = 1;
nodes = (
(165,430,l),
(250,430,l),
(250,100,l),
(165,100,l)
);
}
);
};
guides = (
{
angle = 89.6562;
pos = (258,250);
}
);
hints = (
{
name = _corner.BASE;
type = Corner;
},
{
name = _corner.BASE;
scale = (1.08,1.08);
type = Corner;
},
{
name = _corner.BASE;
scale = (1.08,1.08);
type = Corner;
},
{
name = _corner.BASE;
type = Corner;
},
{
name = _corner.BASE;
scale = (0.3,0.3);
type = Corner;
},
{
name = _corner.BASE;
options = 2;
scale = (-0.3,0.3);
type = Corner;
},
{
name = _corner.BASE;
scale = (0.3,0.3);
type = Corner;
},
{
name = _corner.BASE;
options = 2;
scale = (-0.3,0.3);
type = Corner;
},
{
name = _corner.ROUND;
type = Corner;
},
{
name = _corner.ROUND;
type = Corner;
},
{
name = _corner.ROUND;
type = Corner;
},
{
name = _corner.ROUND;
type = Corner;
},
{
name = _corner.ROUND;
scale = (0.3,0.3);
type = Corner;
},
{
name = _corner.ROUND;
scale = (0.3,0.3);
type = Corner;
},
{
name = _corner.ROUND;
options = 2;
scale = (-0.3,0.3);
type = Corner;
},
{
name = _corner.ROUND;
options = 2;
scale = (-0.3,0.3);
type = Corner;
},
{
name = _corner.ROUND;
type = Corner;
},
{
name = _corner.ROUND;
type = Corner;
},
{
name = _corner.ROUND;
type = Corner;
},
{
name = _corner.ROUND;
type = Corner;
},
{
name = _corner.ROUND;
options = 2;
scale = (-0.3,0.3);
type = Corner;
},
{
name = _corner.ROUND;
scale = (0.3,0.3);
type = Corner;
},
{
name = _corner.ROUND;
scale = (0.3,0.3);
type = Corner;
},
{
name = _corner.ROUND;
options = 2;
scale = (-0.3,0.3);
type = Corner;
},
{
name = _segment.CUT;
type = Segment;
},
{
name = _corner.ROUND;
type = Corner;
},
{
name = _corner.ROUND;
type = Corner;
},
{
name = _corner.ROUND;
options = 2;
scale = (-0.3,0.3);
type = Corner;
},
{
name = _corner.ROUND;
scale = (0.3,0.3);
type = Corner;
},
{
name = _corner.ROUND;
scale = (0.3,0.3);
type = Corner;
},
{
name = _corner.ROUND;
options = 2;
scale = (-0.3,0.3);
type = Corner;
},
{
name = _segment.CUT;
origin = (0,1);
type = Segment;
},
{
name = _corner.ROUND;
origin = (0,2);
type = Corner;
},
{
name = _corner.ROUND;
origin = (0,3);
type = Corner;
},
{
name = _segment.CUT;
options = 1;
origin = (0,5);
scale = (-1,1);
type = Segment;
},
{
name = _corner.ROUND;
origin = (1,0);
scale = (0.3,0.3);
type = Corner;
},
{
name = _corner.ROUND;
origin = (1,1);
scale = (0.3,0.3);
type = Corner;
},
{
name = _corner.ROUND;
options = 2;
origin = (1,2);
scale = (-0.3,0.3);
type = Corner;
},
{
name = _corner.ROUND;
options = 2;
origin = (1,3);
scale = (-0.3,0.3);
type = Corner;
}
);
layerId = m01;
shapes = (
{
closed = 1;
nodes = (
(165,0,l),
(250,0,l),
(390,0,l),
(390,500,l),
(250,500,l),
(165,500,l),
(165,650,l),
(25,650,l),
(25,0,l)
);
},
{
closed = 1;
nodes = (
(165,400,l),
(250,400,l),
(250,100,l),
(165,100,l)
);
}
);
width = 412;
}
);
metricLeft = h;
metricRight = "=o";
unicode = 98;
},
{
glyphname = c;
kernLeft = o;
kernRight = c;
lastChange = "2025-04-23 17:17:41 +0000";
layers = (
{
anchors = (
{
name = bottom;
pos = (205,0);
},
{
name = top;
pos = (205,500);
}
);
background = {
hints = (
{
name = _corner.ROUND;
origin = (0,0);
type = Corner;
},
{
name = _corner.ROUND;
origin = (0,1);
type = Corner;
},
{
name = _corner.ROUND;
origin = (0,2);
type = Corner;
},
{
name = _corner.ROUND;
origin = (0,5);
scale = (0.3,0.3);
type = Corner;
},
{
name = _corner.ROUND;
origin = (0,6);
scale = (0.3,0.3);
type = Corner;
},
{
name = _corner.ROUND;
options = 2;
origin = (0,7);
scale = (-0.3,0.3);
type = Corner;
},
{
name = _corner.ROUND;
options = 2;
origin = (0,8);
scale = (-0.3,0.3);
type = Corner;
},
{
name = _corner.ROUND;
origin = (0,11);
type = Corner;
}
);
shapes = (
{
closed = 1;
nodes = (
(22,530,l),
(22,0,l),
(387,0,l),
(387,181,l),
(247,181,l),
(247,100,l),
(162,100,l),
(162,430,l),
(247,430,l),
(247,341,l),
(387,341,l),
(387,530,l)
);
}
);
};
hints = (
{
name = _corner.ROUND;
origin = (0,0);
type = Corner;
},
{
name = _corner.ROUND;
origin = (0,1);
type = Corner;
},
{
name = _corner.ROUND;
origin = (0,2);
type = Corner;
},
{
name = _corner.ROUND;
origin = (0,11);
type = Corner;
},
{
name = _corner.ROUND;
origin = (0,5);
scale = (0.3,0.3);
type = Corner;
},
{
name = _corner.ROUND;
origin = (0,6);
scale = (0.3,0.3);
type = Corner;
},
{
name = _corner.ROUND;
options = 2;
origin = (0,7);
scale = (-0.3,0.3);
type = Corner;
},
{
name = _corner.ROUND;
options = 2;
origin = (0,8);
scale = (-0.3,0.3);
type = Corner;
}
);
layerId = m01;
shapes = (
{
closed = 1;
nodes = (
(22,500,l),
(22,0,l),
(387,0,l),
(387,173,l),
(247,173,l),
(247,100,l),
(162,100,l),
(162,400,l),
(247,400,l),
(247,327,l),
(387,327,l),
(387,500,l)
);
}
);
width = 409;
}
);
metricLeft = "=o";
metricRight = "=o";
unicode = 99;
},
{
glyphname = d;
kernLeft = o;
kernRight = l;
lastChange = "2025-04-25 16:36:28 +0000";
layers = (
{
anchors = (
{
name = bottom;
pos = (206,0);
},
{
name = center;
pos = (318,565);
},
{
name = top;
pos = (206,500);
},
{
name = topright;
pos = (392,775);
}
);
background = {
hints = (
{
name = _segment.CUT;
origin = (0,3);
type = Segment;
},
{
name = _corner.ROUND;
origin = (0,4);
type = Corner;
},
{
name = _corner.ROUND;
origin = (0,5);
type = Corner;
},
{
name = _segment.CUT;
options = 1;
origin = (0,7);
scale = (-1,1);
type = Segment;
},
{
name = _corner.ROUND;
options = 2;
origin = (1,0);
scale = (-0.3,0.3);
type = Corner;
},
{
name = _corner.ROUND;
origin = (1,1);
scale = (0.3,0.3);
type = Corner;
},
{
name = _corner.ROUND;
origin = (1,2);
scale = (0.3,0.3);
type = Corner;
},
{
name = _corner.ROUND;
options = 2;
origin = (1,3);
scale = (-0.3,0.3);
type = Corner;
}
);
shapes = (
{
closed = 1;
nodes = (
(387,699,l),
(247,699,l),
(247,529,l),
(162,529,l),
(22,529,l),
(22,-1,l),
(162,-1,l),
(247,-1,l),
(387,-1,l)
);
},
{
closed = 1;
nodes = (
(162,99,l),
(162,429,l),
(247,429,l),
(247,99,l)
);
}
);
};
hints = (
{
name = _corner.ROUND;
origin = (0,4);
type = Corner;
},
{
name = _corner.ROUND;
origin = (1,2);
scale = (0.3,0.3);
type = Corner;
},
{
name = _corner.ROUND;
origin = (1,1);
scale = (0.3,0.3);
type = Corner;
},
{
name = _corner.ROUND;
options = 2;
origin = (1,0);
scale = (-0.3,0.3);
type = Corner;
},
{
name = _corner.ROUND;
options = 2;
origin = (1,3);
scale = (-0.3,0.3);
type = Corner;
},
{
name = _segment.CUT;
origin = (0,3);
type = Segment;
},
{
name = _corner.ROUND;
origin = (0,5);
type = Corner;
},
{
name = _segment.CUT;
options = 1;
origin = (0,7);
scale = (-1,1);
type = Segment;
}
);
layerId = m01;
shapes = (
{
closed = 1;
nodes = (
(387,650,l),
(247,650,l),
(247,500,l),
(162,500,l),
(22,500,l),
(22,0,l),
(162,0,l),
(247,0,l),
(387,0,l)
);
},
{
closed = 1;
nodes = (
(162,100,l),
(162,400,l),
(247,400,l),
(247,100,l)
);
}
);
width = 412;
}
);
metricLeft = "=o";
metricRight = "=h";
unicode = 100;
},
{
glyphname = e;
kernLeft = o;
kernRight = e;
lastChange = "2025-04-23 17:17:48 +0000";
layers = (
{
anchors = (
{
name = bottom;
pos = (205,0);
},
{
name = ogonek;
pos = (368,10);
},
{
name = top;
pos = (205,500);
}
);
hints = (
{
name = _corner.ROUND;
type = Corner;
},
{
name = _corner.ROUND;
options = 2;
scale = (-0.3,0.3);
type = Corner;
},
{
name = _corner.ROUND;
options = 2;
scale = (-0.3,0.3);
type = Corner;
},
{
name = _corner.ROUND;
type = Corner;
},
{
name = _corner.ROUND;
type = Corner;
},
{
name = _corner.ROUND;
type = Corner;
},
{
name = _corner.ROUND;
scale = (0.3,0.3);
type = Corner;
},
{
name = _corner.ROUND;
scale = (0.3,0.3);
type = Corner;
},
{
name = _corner.ROUND;
origin = (0,0);
scale = (1.08,1.08);
type = Corner;
},
{
name = _corner.ROUND;
origin = (0,1);
scale = (1.08,1.08);
type = Corner;
},
{
name = _corner.ROUND;
origin = (0,2);
scale = (1.08,1.08);
type = Corner;
},
{
name = _corner.ROUND;
origin = (0,9);
scale = (1.08,1.08);
type = Corner;
},
{
name = _corner.ROUND;
origin = (0,5);
scale = (0.3,0.3);
type = Corner;
},
{
name = _corner.ROUND;
origin = (0,6);
scale = (0.3,0.3);
type = Corner;
},
{
name = _corner.ROUND;
options = 2;
origin = (1,2);
scale = (-0.3,0.3);
type = Corner;
},
{
name = _corner.ROUND;
options = 2;
origin = (1,3);
scale = (-0.3,0.3);
type = Corner;
}
);
layerId = m01;
shapes = (
{
closed = 1;
nodes = (
(22,500,l),
(22,0,l),
(387,0,l),
(387,159,l),
(247,159,l),
(247,100,l),
(162,100,l),
(162,216,l),
(387,216,l),
(387,500,l)
);
},
{
closed = 1;
nodes = (
(247,296,l),
(162,296,l),
(162,400,l),
(247,400,l)
);
}
);
width = 409;
}
);
metricLeft = "=o";
metricRight = "=o";
unicode = 101;
},
{
glyphname = f;
kernLeft = f;
kernRight = f;
lastChange = "2025-05-01 15:38:34 +0000";
layers = (
{
anchors = (
{
name = bottom;
pos = (153,0);
},
{
name = top;
pos = (153,775);
}
);
hints = (
{
name = _corner.ROUND;
origin = (0,4);
type = Corner;
},
{
name = _corner.ROUND;
origin = (0,1);
scale = (0.3,0.3);
type = Corner;
}
);
layerId = m01;
shapes = (
{
closed = 1;
nodes = (
(223,0,l),
(223,550,l),
(293,550,l),
(293,650,l),
(83,650,l),
(83,0,l)
);
},
{
closed = 1;
nodes = (
(293,400,l),
(293,500,l),
(13,500,l),
(13,400,l)
);
}
);
width = 306;
}
);
metricLeft = "=h*.5";
metricRight = "=h*.5";
unicode = 102;
},
{
glyphname = g;
kernLeft = g;
kernRight = g;
lastChange = "2025-04-28 03:14:46 +0000";
layers = (
{
anchors = (
{
name = bottom;
pos = (206,-150);
},
{
name = top;
pos = (206,500);
}
);
background = {
hints = (
{
name = _segment.CUT;
options = 1;
scale = (-1,1);
type = Segment;
},
{
name = _corner.ROUND;
type = Corner;
},
{
name = _segment.CUT;
type = Segment;
},
{
name = _corner.ROUND;
type = Corner;
},
{
name = _corner.ROUND;
type = Corner;
},
{
name = _corner.ROUND;
scale = (0.3,0.3);
type = Corner;
},
{
name = _corner.ROUND;
scale = (0.3,0.3);
type = Corner;
},
{
name = _corner.ROUND;
options = 2;
scale = (-0.3,0.3);
type = Corner;
},
{
name = _corner.ROUND;
options = 2;
scale = (-0.3,0.3);
type = Corner;
},
{
name = _corner.ROUND;
options = 2;
scale = (-0.3,0.3);
type = Corner;
},
{
name = _corner.ROUND;
options = 2;
scale = (-0.3,0.3);
type = Corner;
},
{
name = _corner.ROUND;
type = Corner;
},
{
name = _segment.CUT;
options = 1;
scale = (-1,1);
type = Segment;
},
{
name = _corner.ROUND;
type = Corner;
},
{
name = _segment.CUT;
type = Segment;
},
{
name = _corner.ROUND;
type = Corner;
},
{
name = _corner.ROUND;
type = Corner;
},
{
name = _corner.ROUND;
scale = (0.3,0.3);
type = Corner;
},
{
name = _corner.ROUND;
scale = (0.3,0.3);
type = Corner;
},
{
name = _corner.ROUND;
options = 2;
scale = (-0.3,0.3);
type = Corner;
},
{
name = _corner.ROUND;
options = 2;
scale = (-0.3,0.3);
type = Corner;
},
{
name = _corner.ROUND;
options = 2;
scale = (-0.3,0.3);
type = Corner;
},
{
name = _corner.ROUND;
options = 2;
scale = (-0.3,0.3);
type = Corner;
},
{
name = _corner.ROUND;
type = Corner;
},
{
name = _corner.ROUND;
type = Corner;
},
{
name = _corner.ROUND;
origin = (0,1);
type = Corner;
},
{
name = _segment.CUT;
origin = (0,4);
type = Segment;
},
{
name = _corner.ROUND;
origin = (0,5);
type = Corner;
},
{
name = _corner.ROUND;
origin = (0,6);
type = Corner;
},
{
name = _segment.CUT;
options = 1;
origin = (0,8);
scale = (-1,1);
type = Segment;
},
{
name = _corner.ROUND;
options = 2;
origin = (0,10);
scale = (-0.3,0.3);
type = Corner;
},
{
name = _corner.ROUND;
options = 2;
origin = (0,11);
scale = (-0.3,0.3);
type = Corner;
},
{
name = _corner.ROUND;
origin = (0,14);
type = Corner;
},
{
name = _corner.ROUND;
origin = (1,0);
scale = (0.3,0.3);
type = Corner;
},
{
name = _corner.ROUND;
origin = (1,1);
scale = (0.3,0.3);
type = Corner;
},
{
name = _corner.ROUND;
options = 2;
origin = (1,2);
scale = (-0.3,0.3);
type = Corner;
},
{
name = _corner.ROUND;
options = 2;
origin = (1,3);
scale = (-0.3,0.3);
type = Corner;
}
);
shapes = (
{
closed = 1;
nodes = (
(247,-175,l),
(387,-175,l),
(387,530,l),
(247,530,l),
(162,530,l),
(22,530,l),
(22,0,l),
(162,0,l),
(247,0,l),
(247,-25,l),
(247,-75,l),
(162,-75,l),
(162,-25,l),
(22,-25,l),
(22,-175,l),
(162,-175,l)
);
},
{
closed = 1;
nodes = (
(162,430,l),
(247,430,l),
(247,100,l),
(162,100,l)
);
}
);
};
hints = (
{
name = _segment.CUT;
options = 1;
origin = (0,7);
scale = (-1,1);
type = Segment;
},
{
name = _corner.ROUND;
origin = (0,4);
type = Corner;
},
{
name = _corner.ROUND;
origin = (0,5);
type = Corner;
},
{
name = _corner.ROUND;
origin = (1,0);
scale = (0.3,0.3);
type = Corner;
},
{
name = _corner.ROUND;
origin = (1,1);
scale = (0.3,0.3);
type = Corner;
},
{
name = _corner.ROUND;
options = 2;
origin = (1,2);
scale = (-0.3,0.3);
type = Corner;
},
{
name = _corner.ROUND;
options = 2;
origin = (1,3);
scale = (-0.3,0.3);
type = Corner;
},
{
name = _corner.ROUND;
origin = (0,0);
type = Corner;
},
{
name = _corner.ROUND;
options = 2;
origin = (0,8);
scale = (-0.3,0.3);
type = Corner;
},
{
name = _corner.ROUND;
options = 2;
origin = (0,9);
scale = (-0.3,0.3);
type = Corner;
},
{
name = _corner.ROUND;
origin = (0,0);
type = Corner;
},
{
name = _corner.ROUND;
origin = (0,0);
type = Corner;
},
{
name = _corner.ROUND;
origin = (0,12);
type = Corner;
},
{
name = _segment.CUT;
origin = (0,3);
type = Segment;
}
);
layerId = m01;
shapes = (
{
closed = 1;
nodes = (
(387,-175,l),
(387,500,l),
(247,500,l),
(162,500,l),
(22,500,l),
(22,0,l),
(162,0,l),
(247,0,l),
(247,-75,l),
(162,-75,l),
(162,-25,l),
(22,-25,l),
(22,-175,l)
);
},
{
closed = 1;
nodes = (
(162,400,l),
(247,400,l),
(247,100,l),
(162,100,l)
);
}
);
width = 412;
}
);
metricLeft = "=o";
metricRight = h;
unicode = 103;
},
{
glyphname = h;
kernLeft = h;
kernRight = n;
lastChange = "2025-04-23 17:18:00 +0000";
layers = (
{
anchors = (
{
name = bottom;
pos = (208,0);
},
{
name = center;
pos = (104,620);
},
{
name = top;
pos = (208,775);
}
);
background = {
hints = (
{
name = _corner.ROUND;
type = Corner;
},
{
name = _corner.ROUND;
options = 2;
scale = (-0.3,0.3);
type = Corner;
},
{
name = _corner.ROUND;
options = 2;
scale = (-0.3,0.3);
type = Corner;
},
{
name = _corner.ROUND;
type = Corner;
},
{
name = _corner.ROUND;
options = 2;
scale = (-0.3,0.3);
type = Corner;
},
{
name = _corner.ROUND;
options = 2;
scale = (-0.3,0.3);
type = Corner;
},
{
name = _corner.ROUND;
options = 2;
origin = (0,1);
scale = (-0.3,0.3);
type = Corner;
},
{
name = _corner.ROUND;
options = 2;
origin = (0,2);
scale = (-0.3,0.3);
type = Corner;
},
{
name = _corner.ROUND;
origin = (0,5);
type = Corner;
},
{
name = _segment.CUT;
options = 1;
origin = (0,7);
scale = (-1,1);
type = Segment;
}
);
shapes = (
{
closed = 1;
nodes = (
(165,0,l),
(165,430,l),
(250,430,l),
(250,0,l),
(390,0,l),
(390,530,l),
(250,530,l),
(165,530,l),
(165,700,l),
(25,700,l),
(25,0,l)
);
}
);
};
hints = (
{
name = _corner.ROUND;
origin = (0,5);
type = Corner;
},
{
name = _corner.ROUND;
options = 2;
origin = (0,1);
scale = (-0.3,0.3);
type = Corner;
},
{
name = _corner.ROUND;
options = 2;
origin = (0,2);
scale = (-0.3,0.3);
type = Corner;
},
{
name = _segment.CUT;
options = 1;
origin = (0,7);
scale = (-1,1);
type = Segment;
}
);
layerId = m01;
shapes = (
{
closed = 1;
nodes = (
(165,0,l),
(165,400,l),
(250,400,l),
(250,0,l),
(390,0,l),
(390,500,l),
(250,500,l),
(165,500,l),
(165,650,l),
(25,650,l),
(25,0,l)
);
}
);
width = 415;
}
);
unicode = 104;
},
{
glyphname = i;
kernLeft = i;
kernRight = i;
lastChange = "2025-04-23 17:18:03 +0000";
layers = (
{
anchors = (
{
name = bottom;
pos = (95,0);
}
);
layerId = m01;
shapes = (
{
closed = 1;
nodes = (
(165,650,l),
(25,650,l),
(25,550,l),
(165,550,l)
);
},
{
ref = idotless;
}
);
width = 190;
}
);
metricLeft = "=h";
metricRight = "=h";
unicode = 105;
},
{
glyphname = idotless;
kernLeft = i;
kernRight = i;
lastChange = "2025-04-23 17:18:07 +0000";
layers = (
{
anchors = (
{
name = bottom;
pos = (95,0);
},
{
name = ogonek;
pos = (165,0);
},
{
name = top;
pos = (95,500);
}
);
layerId = m01;
shapes = (
{
closed = 1;
nodes = (
(165,500,l),
(25,500,l),
(25,0,l),
(165,0,l)
);
}
);
width = 190;
}
);
unicode = 305;
},
{
glyphname = j;
kernLeft = j;
kernRight = j;
lastChange = "2025-04-23 15:36:42 +0000";
layers = (
{
background = {
hints = (
{
name = _corner.ROUND;
origin = (0,1);
scale = (0.3,0.3);
type = Corner;
},
{
name = _corner.ROUND;
origin = (0,5);
type = Corner;
}
);
shapes = (
{
closed = 1;
nodes = (
(33,530,l),
(33,-75,l),
(-37,-75,l),
(-37,-175,l),
(33,-175,l),
(173,-175,l),
(173,530,l)
);
},
{
closed = 1;
nodes = (
(173,680,l),
(33,680,l),
(33,580,l),
(173,580,l)
);
}
);
};
layerId = m01;
shapes = (
{
closed = 1;
nodes = (
(173,650,l),
(33,650,l),
(33,550,l),
(173,550,l)
);
},
{
ref = jdotless;
}
);
width = 198;
}
);
metricLeft = "=h*-1.5";
metricRight = "=h";
unicode = 106;
},
{
glyphname = jdotless;
kernLeft = j;
kernRight = j;
lastChange = "2025-05-01 14:49:44 +0000";
layers = (
{
anchors = (
{
name = bottom;
pos = (99,-150);
},
{
name = top;
pos = (101,500);
}
);
hints = (
{
name = _corner.ROUND;
origin = (0,1);
scale = (0.3,0.3);
type = Corner;
},
{
name = _corner.ROUND;
origin = (0,4);
type = Corner;
}
);
layerId = m01;
shapes = (
{
closed = 1;
nodes = (
(33,500,l),
(33,-75,l),
(-37,-75,l),
(-37,-175,l),
(173,-175,l),
(173,500,l)
);
}
);
width = 198;
}
);
metricLeft = "=j";
metricRight = "=h";
unicode = 567;
},
{
glyphname = k;
kernLeft = h;
kernRight = k;
lastChange = "2025-04-23 17:18:17 +0000";
layers = (
{
anchors = (
{
name = bottom;
pos = (205,0);
},
{
name = top;
pos = (205,775);
}
);
background = {
shapes = (
{
closed = 1;
nodes = (
(25,0,l),
(165,0,l),
(165,201,l),
(250,0,l),
(390,0,l),
(285,248,l),
(390,500,l),
(250,500,l),
(165,288,l),
(165,675,l),
(25,675,l)
);
}
);
};
layerId = m01;
shapes = (
{
closed = 1;
nodes = (
(25,0,l),
(165,0,l),
(165,650,l),
(25,650,l)
);
},
{
closed = 1;
nodes = (
(145,250,l),
(250,0,l),
(390,0,l),
(285,250,l),
(390,500,l),
(250,500,l)
);
}
);
width = 409;
}
);
metricLeft = "=h";
metricRight = "=h*.75";
unicode = 107;
},
{
glyphname = l;
kernLeft = h;
kernRight = l;
lastChange = "2025-04-23 17:18:20 +0000";
layers = (
{
anchors = (
{
name = bottom;
pos = (95,0);
},
{
name = center;
pos = (95,250);
},
{
name = top;
pos = (95,775);
},
{
name = topright;
pos = (170,775);
}
);
layerId = m01;
shapes = (
{
closed = 1;
nodes = (
(165,650,l),
(25,650,l),
(25,0,l),
(165,0,l)
);
}
);
width = 190;
}
);
metricLeft = "=h";
metricRight = "=h";
unicode = 108;
},
{
glyphname = m;
kernLeft = n;
kernRight = n;
lastChange = "2025-04-23 17:18:23 +0000";
layers = (
{
anchors = (
{
name = bottom;
pos = (319,0);
},
{
name = top;
pos = (319,500);
}
);
background = {
hints = (
{
name = _corner.ROUND;
type = Corner;
},
{
name = _corner.ROUND;
options = 2;
scale = (-0.3,0.3);
type = Corner;
},
{
name = _corner.ROUND;
options = 2;
scale = (-0.3,0.3);
type = Corner;
},
{
name = _corner.ROUND;
type = Corner;
},
{
name = _corner.ROUND;
options = 2;
scale = (-0.3,0.3);
type = Corner;
},
{
name = _corner.ROUND;
options = 2;
scale = (-0.3,0.3);
type = Corner;
},
{
name = _corner.ROUND;
options = 2;
scale = (-0.3,0.3);
type = Corner;
},
{
name = _corner.ROUND;
options = 2;
scale = (-0.3,0.3);
type = Corner;
},
{
name = _corner.ROUND;
type = Corner;
},
{
name = _corner.ROUND;
scale = (0.3,0.3);
type = Corner;
},
{
name = _corner.ROUND;
options = 2;
scale = (-0.3,0.3);
type = Corner;
},
{
name = _corner.ROUND;
options = 2;
scale = (-0.3,0.3);
type = Corner;
},
{
name = _corner.ROUND;
options = 2;
scale = (-0.3,0.3);
type = Corner;
},
{
name = _corner.ROUND;
type = Corner;
},
{
name = _corner.ROUND;
scale = (0.3,0.3);
type = Corner;
},
{
name = _corner.ROUND;
options = 2;
scale = (-0.3,0.3);
type = Corner;
},
{
name = _segment.CUT;
options = 1;
scale = (-1,1);
type = Segment;
},
{
name = _corner.ROUND;
type = Corner;
},
{
name = _corner.ROUND;
options = 2;
scale = (-0.3,0.3);
type = Corner;
},
{
name = _corner.ROUND;
options = 2;
scale = (-0.3,0.3);
type = Corner;
},
{
name = _segment.CUT;
options = 1;
scale = (-1,1);
type = Segment;
},
{
name = _corner.ROUND;
type = Corner;
},
{
name = _corner.ROUND;
options = 2;
scale = (-0.3,0.3);
type = Corner;
},
{
name = _corner.ROUND;
options = 2;
scale = (-0.3,0.3);
type = Corner;
},
{
name = _corner.ROUND;
type = Corner;
},
{
name = _corner.ROUND;
options = 2;
scale = (-0.3,0.3);
type = Corner;
},
{
name = _corner.ROUND;
options = 2;
scale = (-0.3,0.3);
type = Corner;
},
{
name = _corner.ROUND;
options = 2;
scale = (-0.3,0.3);
type = Corner;
},
{
name = _corner.ROUND;
options = 2;
scale = (-0.3,0.3);
type = Corner;
},
{
name = _corner.ROUND;
type = Corner;
},
{
name = _segment.CUT;
options = 1;
scale = (-1,1);
type = Segment;
},
{
name = _corner.ROUND;
type = Corner;
},
{
name = _corner.ROUND;
options = 2;
scale = (-0.3,0.3);
type = Corner;
},
{
name = _corner.ROUND;
options = 2;
scale = (-0.3,0.3);
type = Corner;
},
{
name = _corner.ROUND;
options = 2;
scale = (-0.3,0.3);
type = Corner;
},
{
name = _corner.ROUND;
options = 2;
scale = (-0.3,0.3);
type = Corner;
},
{
name = _corner.ROUND;
type = Corner;
},
{
name = _corner.ROUND;
options = 2;
scale = (-0.3,0.3);
type = Corner;
},
{
name = _corner.ROUND;
options = 2;
scale = (-0.3,0.3);
type = Corner;
},
{
name = _corner.ROUND;
type = Corner;
},
{
name = _segment.CUT;
options = 1;
scale = (-1,1);
type = Segment;
},
{
name = _corner.ROUND;
scale = (0.3,0.3);
type = Corner;
},
{
name = _corner.ROUND;
scale = (0.3,0.3);
type = Corner;
},
{
name = _corner.ROUND;
type = Corner;
},
{
name = _corner.ROUND;
options = 2;
scale = (-0.3,0.3);
type = Corner;
},
{
name = _corner.ROUND;
options = 2;
scale = (-0.3,0.3);
type = Corner;
},
{
name = _corner.ROUND;
type = Corner;
},
{
name = _segment.CUT;
options = 1;
scale = (-1,1);
type = Segment;
},
{
name = _corner.ROUND;
scale = (0.3,0.3);
type = Corner;
},
{
name = _corner.ROUND;
scale = (0.3,0.3);
type = Corner;
},
{
name = _corner.ROUND;
type = Corner;
},
{
name = _corner.ROUND;
options = 2;
scale = (-0.3,0.3);
type = Corner;
},
{
name = _corner.ROUND;
options = 2;
scale = (-0.3,0.3);
type = Corner;
},
{
name = _corner.ROUND;
type = Corner;
},
{
name = _segment.CUT;
options = 1;
scale = (-1,1);
type = Segment;
},
{
name = _corner.ROUND;
scale = (0.3,0.3);
type = Corner;
},
{
name = _corner.ROUND;
scale = (0.3,0.3);
type = Corner;
},
{
name = _corner.ROUND;
type = Corner;
},
{
name = _corner.ROUND;
origin = (0,1);
scale = (0.3,0.3);
type = Corner;
},
{
name = _corner.ROUND;
origin = (0,2);
scale = (0.3,0.3);
type = Corner;
},
{
name = _corner.ROUND;
origin = (0,5);
type = Corner;
},
{
name = _segment.CUT;
options = 1;
origin = (0,7);
scale = (-1,1);
type = Segment;
},
{
name = _corner.ROUND;
origin = (1,1);
type = Corner;
},
{
name = _corner.ROUND;
options = 2;
origin = (1,8);
scale = (-0.3,0.3);
type = Corner;
},
{
name = _corner.ROUND;
options = 2;
origin = (1,9);
scale = (-0.3,0.3);
type = Corner;
}
);
shapes = (
{
closed = 1;
nodes = (
(165,0,l),
(165,430,l),
(250,430,l),
(250,0,l),
(390,0,l),
(390,530,l),
(250,530,l),
(165,530,l),
(25,530,l),
(25,0,l)
);
},
{
closed = 1;
nodes = (
(615,0,l),
(615,530,l),
(475,530,ls),
(420,530,o),
(380,493,o),
(355,461,c),
(355,373,l),
(390,373,l),
(390,430,l),
(475,430,l),
(475,0,l)
);
}
);
};
hints = (
{
name = _corner.ROUND;
origin = (1,1);
type = Corner;
},
{
name = _corner.ROUND;
options = 2;
origin = (1,8);
scale = (-0.3,0.3);
type = Corner;
},
{
name = _corner.ROUND;
options = 2;
origin = (1,9);
scale = (-0.3,0.3);
type = Corner;
},
{
name = _corner.ROUND;
origin = (0,1);
scale = (0.3,0.3);
type = Corner;
},
{
name = _corner.ROUND;
origin = (0,2);
scale = (0.3,0.3);
type = Corner;
},
{
name = _corner.ROUND;
origin = (0,5);
type = Corner;
},
{
name = _segment.CUT;
options = 1;
origin = (0,7);
scale = (-1,1);
type = Segment;
}
);
layerId = m01;
shapes = (
{
closed = 1;
nodes = (
(165,0,l),
(165,400,l),
(250,400,l),
(250,0,l),
(390,0,l),
(390,500,l),
(250,500,l),
(165,500,l),
(25,500,l),
(25,0,l)
);
},
{
closed = 1;
nodes = (
(615,0,l),
(615,500,l),
(475,500,ls),
(420,500,o),
(378,473,o),
(353,441,c),
(353,353,l),
(390,353,l),
(390,400,l),
(475,400,l),
(475,0,l)
);
}
);
width = 637;
}
);
metricLeft = "=h";
metricRight = "=o";
unicode = 109;
},
{
glyphname = n;
kernLeft = n;
kernRight = n;
lastChange = "2025-04-23 17:18:27 +0000";
layers = (
{
anchors = (
{
name = bottom;
pos = (206,0);
},
{
name = top;
pos = (206,500);
}
);
background = {
hints = (
{
name = _corner.ROUND;
type = Corner;
},
{
name = _corner.ROUND;
options = 2;
scale = (-0.3,0.3);
type = Corner;
},
{
name = _corner.ROUND;
options = 2;
scale = (-0.3,0.3);
type = Corner;
},
{
name = _corner.ROUND;
type = Corner;
},
{
name = _corner.ROUND;
options = 2;
scale = (-0.3,0.3);
type = Corner;
},
{
name = _corner.ROUND;
options = 2;
scale = (-0.3,0.3);
type = Corner;
},
{
name = _corner.ROUND;
type = Corner;
},
{
name = _corner.ROUND;
options = 2;
scale = (-0.3,0.3);
type = Corner;
},
{
name = _corner.ROUND;
options = 2;
scale = (-0.3,0.3);
type = Corner;
},
{
name = _corner.ROUND;
type = Corner;
},
{
name = _corner.ROUND;
options = 2;
scale = (-0.3,0.3);
type = Corner;
},
{
name = _corner.ROUND;
options = 2;
scale = (-0.3,0.3);
type = Corner;
},
{
name = _corner.ROUND;
type = Corner;
},
{
name = _corner.ROUND;
options = 2;
scale = (-0.3,0.3);
type = Corner;
},
{
name = _corner.ROUND;
options = 2;
scale = (-0.3,0.3);
type = Corner;
},
{
name = _segment.CUT;
options = 1;
scale = (-1,1);
type = Segment;
},
{
name = _corner.ROUND;
scale = (0.3,0.3);
type = Corner;
},
{
name = _corner.ROUND;
scale = (0.3,0.3);
type = Corner;
},
{
name = _corner.ROUND;
type = Corner;
},
{
name = _segment.CUT;
options = 1;
scale = (-1,1);
type = Segment;
},
{
name = _corner.ROUND;
scale = (0.3,0.3);
type = Corner;
},
{
name = _corner.ROUND;
scale = (0.3,0.3);
type = Corner;
},
{
name = _corner.ROUND;
type = Corner;
},
{
name = _corner.ROUND;
origin = (0,1);
scale = (0.3,0.3);
type = Corner;
},
{
name = _corner.ROUND;
origin = (0,2);
scale = (0.3,0.3);
type = Corner;
},
{
name = _corner.ROUND;
origin = (0,5);
type = Corner;
},
{
name = _segment.CUT;
options = 1;
origin = (0,7);
scale = (-1,1);
type = Segment;
}
);
shapes = (
{
closed = 1;
nodes = (
(165,0,l),
(165,425,l),
(250,425,l),
(250,0,l),
(390,0,l),
(390,525,l),
(250,525,l),
(165,525,l),
(25,525,l),
(25,0,l)
);
}
);
};
hints = (
{
name = _segment.CUT;
options = 1;
origin = (0,7);
scale = (-1,1);
type = Segment;
},
{
name = _corner.ROUND;
origin = (0,1);
scale = (0.3,0.3);
type = Corner;
},
{
name = _corner.ROUND;
origin = (0,2);
scale = (0.3,0.3);
type = Corner;
},
{
name = _corner.ROUND;
origin = (0,5);
type = Corner;
}
);
layerId = m01;
shapes = (
{
closed = 1;
nodes = (
(165,0,l),
(165,400,l),
(250,400,l),
(250,0,l),
(390,0,l),
(390,500,l),
(250,500,l),
(165,500,l),
(25,500,l),
(25,0,l)
);
}
);
width = 412;
}
);
metricLeft = "=h";
metricRight = "=o";
unicode = 110;
},
{
glyphname = o;
kernLeft = o;
kernRight = o;
lastChange = "2025-04-23 17:18:30 +0000";
layers = (
{
anchors = (
{
name = bottom;
pos = (205,0);
},
{
name = center;
pos = (205,250);
},
{
name = ogonek;
pos = (368,10);
},
{
name = top;
pos = (205,500);
},
{
name = topright;
pos = (389,500);
}
);
hints = (
{
name = _corner.ROUND;
origin = (0,3);
type = Corner;
},
{
name = _corner.ROUND;
options = 2;
origin = (1,2);
scale = (-0.3,0.3);
type = Corner;
},
{
name = _corner.ROUND;
options = 2;
origin = (1,3);
scale = (-0.3,0.3);
type = Corner;
},
{
name = _corner.ROUND;
origin = (0,2);
type = Corner;
},
{
name = _corner.ROUND;
origin = (0,0);
type = Corner;
},
{
name = _corner.ROUND;
origin = (0,1);
type = Corner;
},
{
name = _corner.ROUND;
origin = (1,1);
scale = (0.3,0.3);
type = Corner;
},
{
name = _corner.ROUND;
origin = (1,0);
scale = (0.3,0.3);
type = Corner;
}
);
layerId = m01;
shapes = (
{
closed = 1;
nodes = (
(22,500,l),
(22,0,l),
(387,0,l),
(387,500,l)
);
},
{
closed = 1;
nodes = (
(247,100,l),
(162,100,l),
(162,400,l),
(247,400,l)
);
}
);
width = 409;
}
);
unicode = 111;
},
{
glyphname = oe;
kernLeft = o;
kernRight = e;
lastChange = "2025-05-01 14:52:46 +0000";
layers = (
{
anchors = (
{
name = bottom;
pos = (205,0);
},
{
name = center;
pos = (205,250);
},
{
name = ogonek;
pos = (368,10);
},
{
name = top;
pos = (205,500);
},
{
name = topright;
pos = (389,500);
}
);
hints = (
{
name = _corner.ROUND;
origin = (0,3);
type = Corner;
},
{
name = _corner.ROUND;
options = 2;
origin = (1,2);
scale = (-0.3,0.3);
type = Corner;
},
{
name = _corner.ROUND;
options = 2;
origin = (1,3);
scale = (-0.3,0.3);
type = Corner;
},
{
name = _corner.ROUND;
origin = (0,2);
type = Corner;
},
{
name = _corner.ROUND;
origin = (0,0);
type = Corner;
},
{
name = _corner.ROUND;
origin = (0,1);
type = Corner;
},
{
name = _corner.ROUND;
origin = (1,1);
scale = (0.3,0.3);
type = Corner;
},
{
name = _corner.ROUND;
origin = (1,0);
scale = (0.3,0.3);
type = Corner;
},
{
name = _corner.ROUND;
type = Corner;
},
{
name = _corner.ROUND;
options = 2;
scale = (-0.3,0.3);
type = Corner;
},
{
name = _corner.ROUND;
options = 2;
scale = (-0.3,0.3);
type = Corner;
},
{
name = _corner.ROUND;
type = Corner;
},
{
name = _corner.ROUND;
type = Corner;
},
{
name = _corner.ROUND;
type = Corner;
},
{
name = _corner.ROUND;
scale = (0.3,0.3);
type = Corner;
},
{
name = _corner.ROUND;
scale = (0.3,0.3);
type = Corner;
},
{
name = _corner.ROUND;
origin = (2,0);
scale = (1.08,1.08);
type = Corner;
},
{
name = _corner.ROUND;
origin = (2,1);
scale = (1.08,1.08);
type = Corner;
},
{
name = _corner.ROUND;
origin = (2,2);
scale = (1.08,1.08);
type = Corner;
},
{
name = _corner.ROUND;
origin = (2,9);
scale = (1.08,1.08);
type = Corner;
},
{
name = _corner.ROUND;
origin = (2,5);
scale = (0.3,0.3);
type = Corner;
},
{
name = _corner.ROUND;
origin = (2,6);
scale = (0.3,0.3);
type = Corner;
},
{
name = _corner.ROUND;
options = 2;
origin = (3,2);
scale = (-0.3,0.3);
type = Corner;
},
{
name = _corner.ROUND;
options = 2;
origin = (3,3);
scale = (-0.3,0.3);
type = Corner;
}
);
layerId = m01;
shapes = (
{
closed = 1;
nodes = (
(22,500,l),
(22,0,l),
(387,0,l),
(387,500,l)
);
},
{
closed = 1;
nodes = (
(247,100,l),
(162,100,l),
(162,400,l),
(247,400,l)
);
},
{
closed = 1;
nodes = (
(247,500,l),
(247,0,l),
(612,0,l),
(612,159,l),
(472,159,l),
(472,100,l),
(387,100,l),
(387,216,l),
(612,216,l),
(612,500,l)
);
},
{
closed = 1;
nodes = (
(472,296,l),
(387,296,l),
(387,400,l),
(472,400,l)
);
}
);
width = 634;
}
);
metricLeft = "=o";
metricRight = "=o";
unicode = 339;
},
{
glyphname = p;
kernLeft = p;
kernRight = o;
lastChange = "2025-04-23 17:18:35 +0000";
layers = (
{
anchors = (
{
name = bottom;
pos = (206,0);
},
{
name = top;
pos = (206,500);
}
);
hints = (
{
name = _segment.CUT;
origin = (0,3);
type = Segment;
},
{
name = _corner.ROUND;
origin = (0,4);
type = Corner;
},
{
name = _corner.ROUND;
origin = (0,5);
type = Corner;
},
{
name = _segment.CUT;
options = 1;
origin = (0,7);
scale = (-1,1);
type = Segment;
},
{
name = _corner.ROUND;
options = 2;
origin = (1,0);
scale = (-0.3,0.3);
type = Corner;
},
{
name = _corner.ROUND;
origin = (1,1);
scale = (0.3,0.3);
type = Corner;
},
{
name = _corner.ROUND;
origin = (1,2);
scale = (0.3,0.3);
type = Corner;
},
{
name = _corner.ROUND;
options = 2;
origin = (1,3);
scale = (-0.3,0.3);
type = Corner;
}
);
layerId = m01;
shapes = (
{
closed = 1;
nodes = (
(25,-150,l),
(165,-150,l),
(165,0,l),
(250,0,l),
(390,0,l),
(390,500,l),
(250,500,l),
(165,500,l),
(25,500,l)
);
},
{
closed = 1;
nodes = (
(250,400,l),
(250,100,l),
(165,100,l),
(165,400,l)
);
}
);
width = 412;
}
);
metricLeft = "=h";
metricRight = "=o";
unicode = 112;
},
{
glyphname = thorn;
kernLeft = h;
kernRight = o;
lastChange = "2025-04-23 15:46:20 +0000";
layers = (
{
anchors = (
{
name = bottom;
pos = (206,0);
},
{
name = top;
pos = (206,775);
}
);
hints = (
{
name = _corner.BASE;
type = Corner;
},
{
name = _corner.BASE;
scale = (1.08,1.08);
type = Corner;
},
{
name = _corner.BASE;
scale = (1.08,1.08);
type = Corner;
},
{
name = _corner.BASE;
type = Corner;
},
{
name = _corner.BASE;
scale = (0.3,0.3);
type = Corner;
},
{
name = _corner.BASE;
options = 2;
scale = (-0.3,0.3);
type = Corner;
},
{
name = _corner.BASE;
scale = (0.3,0.3);
type = Corner;
},
{
name = _corner.BASE;
options = 2;
scale = (-0.3,0.3);
type = Corner;
},
{
name = _corner.ROUND;
type = Corner;
},
{
name = _corner.ROUND;
type = Corner;
},
{
name = _corner.ROUND;
type = Corner;
},
{
name = _corner.ROUND;
type = Corner;
},
{
name = _corner.ROUND;
scale = (0.3,0.3);
type = Corner;
},
{
name = _corner.ROUND;
scale = (0.3,0.3);
type = Corner;
},
{
name = _corner.ROUND;
options = 2;
scale = (-0.3,0.3);
type = Corner;
},
{
name = _corner.ROUND;
options = 2;
scale = (-0.3,0.3);
type = Corner;
},
{
name = _corner.ROUND;
type = Corner;
},
{
name = _corner.ROUND;
type = Corner;
},
{
name = _corner.ROUND;
type = Corner;
},
{
name = _corner.ROUND;
type = Corner;
},
{
name = _corner.ROUND;
options = 2;
scale = (-0.3,0.3);
type = Corner;
},
{
name = _corner.ROUND;
scale = (0.3,0.3);
type = Corner;
},
{
name = _corner.ROUND;
scale = (0.3,0.3);
type = Corner;
},
{
name = _corner.ROUND;
options = 2;
scale = (-0.3,0.3);
type = Corner;
},
{
name = _segment.CUT;
type = Segment;
},
{
name = _corner.ROUND;
type = Corner;
},
{
name = _corner.ROUND;
type = Corner;
},
{
name = _corner.ROUND;
options = 2;
scale = (-0.3,0.3);
type = Corner;
},
{
name = _corner.ROUND;
scale = (0.3,0.3);
type = Corner;
},
{
name = _corner.ROUND;
scale = (0.3,0.3);
type = Corner;
},
{
name = _corner.ROUND;
options = 2;
scale = (-0.3,0.3);
type = Corner;
},
{
name = _segment.CUT;
origin = (0,2);
type = Segment;
},
{
name = _corner.ROUND;
origin = (0,3);
type = Corner;
},
{
name = _corner.ROUND;
origin = (0,4);
type = Corner;
},
{
name = _segment.CUT;
options = 1;
origin = (0,6);
scale = (-1,1);
type = Segment;
},
{
name = _corner.ROUND;
origin = (1,0);
scale = (0.3,0.3);
type = Corner;
},
{
name = _corner.ROUND;
origin = (1,1);
scale = (0.3,0.3);
type = Corner;
},
{
name = _corner.ROUND;
options = 2;
origin = (1,2);
scale = (-0.3,0.3);
type = Corner;
},
{
name = _corner.ROUND;
options = 2;
origin = (1,3);
scale = (-0.3,0.3);
type = Corner;
}
);
layerId = m01;
shapes = (
{
closed = 1;
nodes = (
(165,-150,l),
(165,0,l),
(250,0,l),
(390,0,l),
(390,500,l),
(250,500,l),
(165,500,l),
(165,650,l),
(25,650,l),
(25,-150,l)
);
},
{
closed = 1;
nodes = (
(165,400,l),
(250,400,l),
(250,100,l),
(165,100,l)
);
}
);
width = 412;
}
);
unicode = 254;
},
{
glyphname = q;
kernLeft = o;
kernRight = q;
lastChange = "2025-04-23 17:18:38 +0000";
layers = (
{
anchors = (
{
name = bottom;
pos = (206,0);
},
{
name = top;
pos = (206,500);
}
);
background = {
hints = (
{
name = _segment.CUT;
type = Segment;
},
{
name = _corner.ROUND;
type = Corner;
},
{
name = _corner.ROUND;
type = Corner;
},
{
name = _segment.CUT;
options = 1;
scale = (-1,1);
type = Segment;
},
{
name = _corner.ROUND;
scale = (0.3,0.3);
type = Corner;
},
{
name = _corner.ROUND;
scale = (0.3,0.3);
type = Corner;
},
{
name = _corner.ROUND;
options = 2;
scale = (-0.3,0.3);
type = Corner;
},
{
name = _corner.ROUND;
options = 2;
scale = (-0.3,0.3);
type = Corner;
},
{
name = _segment.CUT;
origin = (0,1);
type = Segment;
},
{
name = _corner.ROUND;
origin = (0,2);
type = Corner;
},
{
name = _corner.ROUND;
origin = (0,3);
type = Corner;
},
{
name = _segment.CUT;
options = 1;
origin = (0,5);
scale = (-1,1);
type = Segment;
},
{
name = _corner.ROUND;
origin = (1,0);
scale = (0.3,0.3);
type = Corner;
},
{
name = _corner.ROUND;
origin = (1,1);
scale = (0.3,0.3);
type = Corner;
},
{
name = _corner.ROUND;
options = 2;
origin = (1,2);
scale = (-0.3,0.3);
type = Corner;
},
{
name = _corner.ROUND;
options = 2;
origin = (1,3);
scale = (-0.3,0.3);
type = Corner;
}
);
shapes = (
{
closed = 1;
nodes = (
(247,525,l),
(162,525,l),
(22,525,l),
(22,0,l),
(162,0,l),
(247,0,l),
(247,-175,l),
(387,-175,l),
(387,525,l)
);
},
{
closed = 1;
nodes = (
(247,100,l),
(162,100,l),
(162,425,l),
(247,425,l)
);
}
);
};
hints = (
{
name = _segment.CUT;
origin = (0,1);
type = Segment;
},
{
name = _corner.ROUND;
origin = (0,2);
type = Corner;
},
{
name = _corner.ROUND;
origin = (0,3);
type = Corner;
},
{
name = _segment.CUT;
options = 1;
origin = (0,5);
scale = (-1,1);
type = Segment;
},
{
name = _corner.ROUND;
origin = (1,0);
scale = (0.3,0.3);
type = Corner;
},
{
name = _corner.ROUND;
origin = (1,1);
scale = (0.3,0.3);
type = Corner;
},
{
name = _corner.ROUND;
options = 2;
origin = (1,2);
scale = (-0.3,0.3);
type = Corner;
},
{
name = _corner.ROUND;
options = 2;
origin = (1,3);
scale = (-0.3,0.3);
type = Corner;
}
);
layerId = m01;
shapes = (
{
closed = 1;
nodes = (
(247,500,l),
(162,500,l),
(22,500,l),
(22,0,l),
(162,0,l),
(247,0,l),
(247,-150,l),
(387,-150,l),
(387,500,l)
);
},
{
closed = 1;
nodes = (
(247,100,l),
(162,100,l),
(162,400,l),
(247,400,l)
);
}
);
width = 412;
}
);
metricLeft = "=o";
metricRight = "=h";
unicode = 113;
},
{
glyphname = r;
kernLeft = n;
kernRight = r;
lastChange = "2025-04-23 17:18:41 +0000";
layers = (
{
anchors = (
{
name = bottom;
pos = (199,0);
},
{
name = top;
pos = (199,500);
}
);
hints = (
{
name = _corner.ROUND;
origin = (0,9);
type = Corner;
},
{
name = _corner.ROUND;
options = 2;
origin = (0,6);
scale = (-0.3,0.3);
type = Corner;
},
{
name = _corner.ROUND;
origin = (0,5);
scale = (0.3,0.3);
type = Corner;
},
{
name = _segment.CUT;
options = 1;
origin = (0,1);
scale = (-1,1);
type = Segment;
}
);
layerId = m01;
shapes = (
{
closed = 1;
nodes = (
(250,500,l),
(165,500,l),
(25,500,l),
(25,0,l),
(165,0,l),
(165,400,l),
(250,400,l),
(250,335,l),
(390,335,l),
(390,500,l)
);
}
);
width = 398;
}
);
metricLeft = "=h";
metricRight = "=h*.33";
unicode = 114;
},
{
glyphname = s;
kernLeft = s;
kernRight = s;
lastChange = "2025-05-01 15:34:53 +0000";
layers = (
{
anchors = (
{
name = bottom;
pos = (200,0);
},
{
name = top;
pos = (200,500);
}
);
background = {
hints = (
{
name = _corner.ROUND;
origin = (0,2);
scale = (0.3,0.3);
type = Corner;
},
{
name = _corner.ROUND;
options = 2;
origin = (0,3);
scale = (-0.3,0.3);
type = Corner;
},
{
name = _corner.ROUND;
origin = (0,6);
scale = (1.08,1.08);
type = Corner;
},
{
name = _corner.ROUND;
origin = (0,7);
scale = (1.08,1);
type = Corner;
},
{
name = _corner.ROUND;
options = 2;
origin = (0,12);
scale = (-0.3,0.3);
type = Corner;
},
{
name = _corner.ROUND;
origin = (0,13);
scale = (0.3,0.3);
type = Corner;
},
{
name = _corner.ROUND;
origin = (0,16);
type = Corner;
},
{
name = _corner.ROUND;
origin = (0,17);
type = Corner;
}
);
shapes = (
{
closed = 1;
nodes = (
(156,299,o),
(157,375,c),
(157,430,l),
(242,430,l),
(242,364,l),
(382,365,l),
(382,530,l),
(17,530,l),
(17,385,l),
(17,201,o),
(243,245,o),
(242,155,c),
(242,100,l),
(157,100,l),
(157,165,l),
(17,165,l),
(17,0,l),
(382,0,l),
(382,155,ls),
(382,335,o)
);
}
);
};
hints = (
{
name = _corner.ROUND;
origin = (0,2);
scale = (0.3,0.3);
type = Corner;
},
{
name = _corner.ROUND;
options = 2;
origin = (0,3);
scale = (-0.3,0.3);
type = Corner;
},
{
name = _corner.ROUND;
origin = (0,6);
type = Corner;
},
{
name = _corner.ROUND;
origin = (0,7);
type = Corner;
},
{
name = _corner.ROUND;
options = 2;
origin = (0,12);
scale = (-0.3,0.3);
type = Corner;
},
{
name = _corner.ROUND;
origin = (0,13);
scale = (0.3,0.3);
type = Corner;
},
{
name = _corner.ROUND;
origin = (0,16);
type = Corner;
},
{
name = _corner.ROUND;
origin = (0,17);
type = Corner;
}
);
layerId = m01;
shapes = (
{
closed = 1;
nodes = (
(157,265,o),
(157,355,c),
(157,400,l),
(242,400,l),
(242,335,l),
(382,335,l),
(382,500,l),
(17,500,l),
(17,355,l),
(17,175,o),
(242,235,o),
(242,145,c),
(242,100,l),
(157,100,l),
(157,165,l),
(17,165,l),
(17,0,l),
(382,0,l),
(382,145,ls),
(382,325,o)
);
}
);
width = 399;
}
);
metricLeft = "=o*.75";
metricRight = "=o*.75";
unicode = 115;
},
{
glyphname = germandbls;
kernLeft = n;
kernRight = germandbls;
lastChange = "2025-05-01 14:51:16 +0000";
layers = (
{
anchors = (
{
name = bottom;
pos = (239,0);
},
{
name = top;
pos = (239,775);
}
);
hints = (
{
name = _corner.ROUND;
origin = (0,12);
scale = (1.08,1.08);
type = Corner;
},
{
name = _corner.ROUND;
origin = (0,15);
type = Corner;
},
{
name = _corner.ROUND;
origin = (0,5);
scale = (0.3,0.3);
type = Corner;
},
{
name = _corner.ROUND;
options = 2;
origin = (0,4);
scale = (-0.3,0.3);
type = Corner;
},
{
name = _corner.ROUND;
origin = (0,9);
scale = (0.3,0.3);
type = Corner;
},
{
name = _corner.ROUND;
options = 2;
origin = (0,8);
scale = (-0.3,0.3);
type = Corner;
},
{
name = _segment.DOUBLECUT;
origin = (0,14);
type = Segment;
},
{
name = _corner.ROUND;
origin = (0,0);
scale = (1.2,1.2);
type = Corner;
},
{
name = _corner.ROUND;
origin = (0,3);
scale = (0.3,0.3);
type = Corner;
}
);
layerId = m01;
shapes = (
{
closed = 1;
nodes = (
(25,600,l),
(25,0,l),
(165,0,l),
(165,500,l),
(315,500,l),
(315,350,l),
(245,350,l),
(245,250,l),
(315,250,l),
(315,100,l),
(215,100,l),
(215,0,l),
(455,0,l),
(455,206,l),
(455,400,l),
(455,600,l)
);
}
);
width = 477;
}
);
metricLeft = "=h";
metricRight = "=o";
unicode = 223;
},
{
glyphname = t;
kernLeft = t;
kernRight = t;
lastChange = "2025-05-01 14:53:27 +0000";
layers = (
{
anchors = (
{
name = bottom;
pos = (153,0);
},
{
name = center;
pos = (153,250);
},
{
name = top;
pos = (153,675);
},
{
name = topright;
pos = (286,775);
}
);
background = {
hints = (
{
name = _corner.ROUND;
origin = (0,0);
type = Corner;
},
{
name = _corner.ROUND;
origin = (0,3);
scale = (0.3,0.3);
type = Corner;
}
);
shapes = (
{
closed = 1;
nodes = (
(83,0,l),
(293,0,l),
(293,100,l),
(223,100,l),
(223,700,l),
(83,700,l)
);
},
{
closed = 1;
nodes = (
(13,425,l),
(293,425,l),
(293,525,l),
(13,525,l)
);
}
);
};
hints = (
{
name = _corner.ROUND;
origin = (0,7);
scale = (0.3,0.3);
type = Corner;
},
{
name = _corner.ROUND;
origin = (0,4);
type = Corner;
}
);
layerId = m01;
shapes = (
{
closed = 1;
nodes = (
(83,500,l),
(13,500,l),
(13,400,l),
(83,400,l),
(83,0,l),
(293,0,l),
(293,100,l),
(223,100,l),
(223,400,l),
(293,400,l),
(293,500,l),
(223,500,l),
(223,650,l),
(83,650,l)
);
}
);
width = 306;
}
);
metricLeft = "=h*.5";
metricRight = "=h*.5";
unicode = 116;
},
{
glyphname = u;
kernLeft = u;
kernRight = u;
lastChange = "2025-04-23 17:18:54 +0000";
layers = (
{
anchors = (
{
name = bottom;
pos = (208,0);
},
{
name = ogonek;
pos = (374,10);
},
{
name = top;
pos = (208,500);
},
{
name = topright;
pos = (395,500);
}
);
background = {
hints = (
{
name = _corner.ROUND;
type = Corner;
},
{
name = _corner.ROUND;
options = 2;
scale = (-0.3,0.3);
type = Corner;
},
{
name = _corner.ROUND;
options = 2;
scale = (-0.3,0.3);
type = Corner;
},
{
name = _corner.ROUND;
type = Corner;
},
{
name = _corner.ROUND;
options = 2;
scale = (-0.3,0.3);
type = Corner;
},
{
name = _corner.ROUND;
options = 2;
scale = (-0.3,0.3);
type = Corner;
},
{
name = _segment.CUT;
options = 1;
origin = (0,1);
scale = (-1,1);
type = Segment;
},
{
name = _corner.ROUND;
options = 2;
origin = (0,5);
scale = (-0.3,0.3);
type = Corner;
},
{
name = _corner.ROUND;
options = 2;
origin = (0,6);
scale = (-0.3,0.3);
type = Corner;
},
{
name = _corner.ROUND;
origin = (0,9);
type = Corner;
}
);
shapes = (
{
closed = 1;
nodes = (
(167,0,l),
(250,0,l),
(390,0,l),
(390,530,l),
(250,530,l),
(250,100,l),
(165,100,l),
(165,530,l),
(25,530,l),
(25,0,l)
);
}
);
};
hints = (
{
name = _corner.ROUND;
origin = (0,9);
type = Corner;
},
{
name = _corner.ROUND;
options = 2;
origin = (0,5);
scale = (-0.3,0.3);
type = Corner;
},
{
name = _corner.ROUND;
options = 2;
origin = (0,6);
scale = (-0.3,0.3);
type = Corner;
},
{
name = _segment.CUT;
options = 1;
origin = (0,1);
scale = (-1,1);
type = Segment;
}
);
layerId = m01;
shapes = (
{
closed = 1;
nodes = (
(165,0,l),
(250,0,l),
(390,0,l),
(390,500,l),
(250,500,l),
(250,100,l),
(165,100,l),
(165,500,l),
(25,500,l),
(25,0,l)
);
}
);
width = 415;
}
);
metricLeft = "=h";
metricRight = "=h";
unicode = 117;
},
{
glyphname = v;
kernLeft = v;
kernRight = v;
lastChange = "2025-04-23 17:18:59 +0000";
layers = (
{
anchors = (
{
name = bottom;
pos = (196,0);
},
{
name = top;
pos = (196,500);
}
);
background = {
shapes = (
{
closed = 0;
nodes = (
(171,0,l),
(271,0,l)
);
}
);
};
layerId = m01;
shapes = (
{
closed = 1;
nodes = (
(6,500,l),
(121,0,l),
(221,0,l),
(146,500,l)
);
},
{
closed = 1;
nodes = (
(171,0,l),
(271,0,l),
(386,500,l),
(246,500,l)
);
}
);
width = 392;
}
);
metricLeft = "=h*.25";
metricRight = "=h*.25";
unicode = 118;
},
{
glyphname = w;
kernLeft = w;
kernRight = w;
lastChange = "2025-04-28 00:30:27 +0000";
layers = (
{
anchors = (
{
name = bottom;
pos = (311,0);
},
{
name = top;
pos = (311,500);
}
);
layerId = m01;
shapes = (
{
closed = 1;
nodes = (
(6,500,l),
(116,0,l),
(216,0,l),
(146,500,l)
);
},
{
closed = 1;
nodes = (
(166,0,l),
(266,0,l),
(336,500,l),
(246,500,l)
);
},
{
closed = 1;
nodes = (
(286,500,l),
(356,0,l),
(456,0,l),
(376,500,l)
);
},
{
closed = 1;
nodes = (
(406,0,l),
(506,0,l),
(616,500,l),
(476,500,l)
);
}
);
width = 622;
}
);
metricLeft = "=h*.25";
metricRight = "=h*.25";
unicode = 119;
},
{
glyphname = x;
kernLeft = x;
kernRight = x;
lastChange = "2025-04-23 17:19:07 +0000";
layers = (
{
anchors = (
{
name = bottom;
pos = (189,0);
},
{
name = top;
pos = (189,500);
}
);
background = {
shapes = (
{
closed = 1;
nodes = (
(119,263,l),
(6,0,l),
(146,0,l),
(189,130,l),
(231,0,l),
(371,0,l),
(259,263,l),
(371,525,l),
(231,525,l),
(189,395,l),
(146,525,l),
(6,525,l)
);
}
);
};
layerId = m01;
shapes = (
{
closed = 1;
nodes = (
(119,251,l),
(6,0,l),
(146,0,l),
(189,120,l),
(231,0,l),
(371,0,l),
(259,251,l),
(371,500,l),
(231,500,l),
(189,380,l),
(146,500,l),
(6,500,l)
);
}
);
width = 377;
}
);
metricLeft = "=h*.25";
metricRight = "=h*.25";
unicode = 120;
},
{
glyphname = y;
kernLeft = y;
kernRight = y;
lastChange = "2025-04-23 17:21:25 +0000";
layers = (
{
anchors = (
{
name = bottom;
pos = (200,0);
},
{
name = top;
pos = (200,500);
}
);
background = {
hints = (
{
name = _corner.ROUND;
origin = (0,7);
scale = (0.3,0.4);
type = Corner;
},
{
name = _corner.ROUND;
origin = (0,10);
scale = (1.15,0.8);
type = Corner;
}
);
shapes = (
{
closed = 1;
nodes = (
(278,0,l),
(393,525,l),
(253,525,l),
(203,177,l),
(153,525,l),
(13,525,l),
(128,0,l),
(144,-75,l),
(13,-75,l),
(13,-175,l),
(230,-175,l)
);
}
);
};
hints = (
{
name = _corner.ROUND;
origin = (0,7);
scale = (0.3,0.4);
type = Corner;
},
{
name = _corner.ROUND;
origin = (0,10);
scale = (1.15,0.8);
type = Corner;
}
);
layerId = m01;
shapes = (
{
closed = 1;
nodes = (
(278,0,l),
(393,500,l),
(253,500,l),
(203,122,l),
(153,500,l),
(13,500,l),
(128,0,l),
(144,-50,l),
(13,-50,l),
(13,-150,l),
(230,-150,l)
);
}
);
width = 399;
}
);
metricLeft = "=h*.5";
metricRight = "=h*.25";
unicode = 121;
},
{
glyphname = z;
kernLeft = z;
kernRight = z;
lastChange = "2025-04-23 17:19:12 +0000";
layers = (
{
anchors = (
{
name = bottom;
pos = (180,0);
},
{
name = center;
pos = (180,250);
},
{
name = top;
pos = (180,500);
}
);
layerId = m01;
shapes = (
{
closed = 1;
nodes = (
(19,400,l),
(194,400,l),
(19,100,l),
(19,0,l),
(334,0,l),
(334,100,l),
(159,100,l),
(334,400,l),
(334,500,l),
(19,500,l)
);
}
);
width = 359;
}
);
metricLeft = "=h*.75";
metricRight = "=h";
unicode = 122;
},
{
glyphname = zero;
kernLeft = zero;
kernRight = zero;
lastChange = "2025-04-23 15:50:43 +0000";
layers = (
{
hints = (
{
name = _corner.ROUND;
origin = (0,0);
type = Corner;
},
{
name = _corner.ROUND;
origin = (0,1);
type = Corner;
},
{
name = _corner.ROUND;
origin = (0,2);
type = Corner;
},
{
name = _corner.ROUND;
origin = (0,3);
type = Corner;
},
{
name = _corner.ROUND;
origin = (1,0);
scale = (0.3,0.3);
type = Corner;
},
{
name = _corner.ROUND;
origin = (1,1);
scale = (0.3,0.3);
type = Corner;
},
{
name = _corner.ROUND;
options = 2;
origin = (1,2);
scale = (-0.3,0.3);
type = Corner;
},
{
name = _corner.ROUND;
options = 2;
origin = (1,3);
scale = (-0.3,0.3);
type = Corner;
}
);
layerId = m01;
shapes = (
{
closed = 1;
nodes = (
(22,0,l),
(412,0,l),
(412,650,l),
(22,650,l)
);
},
{
closed = 1;
nodes = (
(262,110,l),
(172,110,l),
(172,540,l),
(262,540,l)
);
}
);
width = 434;
}
);
metricLeft = "=O";
metricRight = "=O";
unicode = 48;
},
{
glyphname = one;
kernLeft = one;
kernRight = one;
lastChange = "2025-04-23 15:50:51 +0000";
layers = (
{
layerId = m01;
shapes = (
{
closed = 1;
nodes = (
(282,650,l),
(132,650,l),
(132,0,l),
(282,0,l)
);
},
{
closed = 1;
nodes = (
(84,446,l),
(210,572,l),
(132,650,l),
(6,524,l)
);
}
);
width = 313;
}
);
metricLeft = "=O*0.25";
metricRight = "=H*1.25";
unicode = 49;
},
{
glyphname = two;
kernLeft = two;
kernRight = two;
lastChange = "2025-04-23 15:51:07 +0000";
layers = (
{
hints = (
{
name = _corner.ROUND;
origin = (0,15);
scale = (0.3,0.3);
type = Corner;
},
{
name = _corner.ROUND;
options = 2;
origin = (0,14);
scale = (-0.3,0.3);
type = Corner;
},
{
name = _corner.ROUND;
origin = (0,11);
scale = (1.08,1.08);
type = Corner;
},
{
name = _corner.ROUND;
origin = (0,10);
type = Corner;
}
);
layerId = m01;
shapes = (
{
closed = 1;
nodes = (
(262,299,o),
(22,321,o),
(22,130,c),
(22,0,l),
(412,0,l),
(412,130,l),
(172,130,l),
(172,251,o),
(412,222,o),
(412,375,c),
(412,650,l),
(22,650,l),
(22,395,l),
(172,395,l),
(172,540,l),
(262,540,l),
(262,395,l)
);
}
);
width = 434;
}
);
metricLeft = "=O";
metricRight = "=O";
unicode = 50;
},
{
glyphname = three;
kernLeft = three;
kernRight = three;
lastChange = "2025-04-23 15:51:32 +0000";
layers = (
{
background = {
hints = (
{
name = _corner.ROUND;
type = Corner;
},
{
name = _corner.ROUND;
scale = (1.08,1.08);
type = Corner;
},
{
name = _segment.DOUBLECUT;
type = Segment;
},
{
name = _corner.ROUND;
type = Corner;
},
{
name = _corner.ROUND;
type = Corner;
},
{
name = _corner.ROUND;
scale = (0.3,0.3);
type = Corner;
},
{
name = _corner.ROUND;
options = 2;
scale = (-0.3,0.3);
type = Corner;
},
{
name = _corner.ROUND;
scale = (0.3,0.3);
type = Corner;
},
{
name = _corner.ROUND;
options = 2;
scale = (-0.3,0.3);
type = Corner;
},
{
name = _corner.ROUND;
scale = (0.3,0.3);
type = Corner;
},
{
name = _corner.ROUND;
scale = (0.3,0.3);
type = Corner;
},
{
name = _corner.ROUND;
origin = (0,1);
type = Corner;
},
{
name = _corner.ROUND;
origin = (0,2);
scale = (1.08,1.08);
type = Corner;
},
{
name = _segment.DOUBLECUT;
origin = (0,4);
type = Segment;
},
{
name = _corner.ROUND;
origin = (0,5);
type = Corner;
},
{
name = _corner.ROUND;
origin = (0,6);
type = Corner;
},
{
name = _corner.ROUND;
origin = (0,9);
scale = (0.3,0.3);
type = Corner;
},
{
name = _corner.ROUND;
options = 2;
origin = (0,10);
scale = (-0.3,0.3);
type = Corner;
},
{
name = _corner.ROUND;
origin = (0,11);
scale = (0.3,0.3);
type = Corner;
},
{
name = _corner.ROUND;
options = 2;
origin = (0,14);
scale = (-0.3,0.3);
type = Corner;
},
{
name = _corner.ROUND;
origin = (0,15);
scale = (0.3,0.3);
type = Corner;
},
{
name = _corner.ROUND;
origin = (0,16);
scale = (0.3,0.3);
type = Corner;
}
);
shapes = (
{
closed = 1;
nodes = (
(22,200,l),
(22,0,l),
(412,0,l),
(412,275,l),
(412,425,l),
(412,700,l),
(22,700,l),
(22,500,l),
(172,500,l),
(172,590,l),
(262,590,l),
(262,405,l),
(157,405,l),
(157,295,l),
(262,295,l),
(262,110,l),
(172,110,l),
(172,200,l)
);
}
);
};
hints = (
{
name = _corner.ROUND;
origin = (0,11);
scale = (0.3,0.3);
type = Corner;
},
{
name = _corner.ROUND;
options = 2;
origin = (0,10);
scale = (-0.3,0.3);
type = Corner;
},
{
name = _corner.ROUND;
origin = (0,2);
scale = (1.08,1.08);
type = Corner;
},
{
name = _corner.ROUND;
origin = (0,15);
scale = (0.3,0.3);
type = Corner;
},
{
name = _corner.ROUND;
options = 2;
origin = (0,14);
scale = (-0.3,0.3);
type = Corner;
},
{
name = _corner.ROUND;
origin = (0,6);
type = Corner;
},
{
name = _corner.ROUND;
origin = (0,1);
type = Corner;
},
{
name = _corner.ROUND;
origin = (0,9);
scale = (0.3,0.3);
type = Corner;
},
{
name = _corner.ROUND;
origin = (0,16);
scale = (0.3,0.3);
type = Corner;
},
{
name = _segment.DOUBLECUT;
origin = (0,4);
type = Segment;
},
{
name = _corner.ROUND;
origin = (0,5);
type = Corner;
}
);
layerId = m01;
shapes = (
{
closed = 1;
nodes = (
(22,200,l),
(22,0,l),
(412,0,l),
(412,248,l),
(412,398,l),
(412,650,l),
(22,650,l),
(22,450,l),
(172,450,l),
(172,540,l),
(262,540,l),
(262,378,l),
(157,378,l),
(157,268,l),
(262,268,l),
(262,110,l),
(172,110,l),
(172,200,l)
);
}
);
width = 434;
}
);
metricLeft = "=O";
metricRight = "=O";
unicode = 51;
},
{
glyphname = four;
kernLeft = four;
kernRight = four;
lastChange = "2025-04-23 15:51:51 +0000";
layers = (
{
background = {
shapes = (
{
closed = 1;
nodes = (
(372,700,l),
(222,700,l),
(222,0,l),
(372,0,l)
);
},
{
closed = 1;
nodes = (
(22,163,l),
(412,163,l),
(412,273,l),
(22,273,l)
);
}
);
};
layerId = m01;
shapes = (
{
closed = 1;
nodes = (
(372,650,l),
(222,650,l),
(222,0,l),
(372,0,l)
);
},
{
closed = 1;
nodes = (
(22,162,l),
(412,162,l),
(412,272,l),
(143,272,l),
(322,604,l),
(222,650,l),
(22,272,l)
);
}
);
width = 434;
}
);
metricLeft = "=O";
metricRight = "=O";
unicode = 52;
},
{
glyphname = five;
kernLeft = five;
kernRight = five;
lastChange = "2025-04-23 15:52:05 +0000";
layers = (
{
background = {
hints = (
{
name = _corner.ROUND;
type = Corner;
},
{
name = _corner.ROUND;
type = Corner;
},
{
name = _segment.CUT;
options = 1;
scale = (-1,1);
type = Segment;
},
{
name = _corner.ROUND;
type = Corner;
},
{
name = _corner.ROUND;
scale = (0.3,0.3);
type = Corner;
},
{
name = _corner.ROUND;
scale = (0.3,0.3);
type = Corner;
},
{
name = _corner.ROUND;
options = 2;
scale = (-0.3,0.3);
type = Corner;
},
{
name = _corner.ROUND;
options = 2;
scale = (-0.3,0.3);
type = Corner;
},
{
name = _corner.ROUND;
type = Corner;
},
{
name = _corner.ROUND;
type = Corner;
},
{
name = _segment.CUT;
options = 1;
scale = (-1,1);
type = Segment;
},
{
name = _corner.ROUND;
type = Corner;
},
{
name = _corner.ROUND;
scale = (0.3,0.3);
type = Corner;
},
{
name = _corner.ROUND;
scale = (0.3,0.3);
type = Corner;
},
{
name = _corner.ROUND;
options = 2;
scale = (-0.3,0.3);
type = Corner;
},
{
name = _corner.ROUND;
options = 2;
scale = (-0.3,0.3);
type = Corner;
},
{
name = _corner.ROUND;
type = Corner;
},
{
name = _corner.ROUND;
type = Corner;
},
{
name = _segment.CUT;
options = 1;
scale = (-1,1);
type = Segment;
},
{
name = _corner.ROUND;
type = Corner;
},
{
name = _corner.ROUND;
scale = (0.3,0.3);
type = Corner;
},
{
name = _corner.ROUND;
scale = (0.3,0.3);
type = Corner;
},
{
name = _corner.ROUND;
options = 2;
scale = (-0.3,0.3);
type = Corner;
},
{
name = _corner.ROUND;
options = 2;
scale = (-0.3,0.3);
type = Corner;
},
{
name = _corner.ROUND;
type = Corner;
},
{
name = _corner.ROUND;
type = Corner;
},
{
name = _corner.ROUND;
type = Corner;
},
{
name = _segment.CUT;
options = 1;
scale = (-1,1);
type = Segment;
},
{
name = _corner.ROUND;
scale = (0.3,0.3);
type = Corner;
},
{
name = _corner.ROUND;
scale = (0.3,0.3);
type = Corner;
},
{
name = _corner.ROUND;
options = 2;
scale = (-0.3,0.3);
type = Corner;
},
{
name = _corner.ROUND;
options = 2;
scale = (-0.3,0.3);
type = Corner;
},
{
name = _corner.ROUND;
origin = (1,1);
type = Corner;
},
{
name = _corner.ROUND;
origin = (1,2);
type = Corner;
},
{
name = _corner.ROUND;
origin = (1,3);
type = Corner;
},
{
name = _segment.CUT;
options = 1;
origin = (1,5);
scale = (-1,1);
type = Segment;
},
{
name = _corner.ROUND;
origin = (1,12);
scale = (0.3,0.3);
type = Corner;
},
{
name = _corner.ROUND;
origin = (1,13);
scale = (0.3,0.3);
type = Corner;
},
{
name = _corner.ROUND;
options = 2;
origin = (1,14);
scale = (-0.3,0.3);
type = Corner;
},
{
name = _corner.ROUND;
options = 2;
origin = (1,15);
scale = (-0.3,0.3);
type = Corner;
}
);
shapes = (
{
closed = 0;
nodes = (
(22,200,l),
(172,200,l)
);
},
{
closed = 1;
nodes = (
(22,200,l),
(22,0,l),
(412,0,l),
(412,520,l),
(262,520,l),
(172,520,l),
(172,590,l),
(387,590,l),
(387,700,l),
(22,700,l),
(22,368,l),
(172,368,l),
(172,410,l),
(262,410,l),
(262,110,l),
(172,110,l),
(172,200,l)
);
}
);
};
hints = (
{
name = _corner.ROUND;
origin = (0,1);
type = Corner;
},
{
name = _corner.ROUND;
origin = (0,2);
type = Corner;
},
{
name = _corner.ROUND;
origin = (0,3);
type = Corner;
},
{
name = _segment.CUT;
options = 1;
origin = (0,5);
scale = (-1,1);
type = Segment;
},
{
name = _corner.ROUND;
origin = (0,12);
scale = (0.3,0.3);
type = Corner;
},
{
name = _corner.ROUND;
origin = (0,13);
scale = (0.3,0.3);
type = Corner;
},
{
name = _corner.ROUND;
options = 2;
origin = (0,14);
scale = (-0.3,0.3);
type = Corner;
},
{
name = _corner.ROUND;
options = 2;
origin = (0,15);
scale = (-0.3,0.3);
type = Corner;
}
);
layerId = m01;
shapes = (
{
closed = 1;
nodes = (
(22,200,l),
(22,0,l),
(412,0,l),
(412,460,l),
(262,460,l),
(172,460,l),
(172,540,l),
(387,540,l),
(387,650,l),
(22,650,l),
(22,308,l),
(172,308,l),
(172,350,l),
(262,350,l),
(262,110,l),
(172,110,l),
(172,200,l)
);
}
);
width = 434;
}
);
metricLeft = "=O";
metricRight = "=O";
unicode = 53;
},
{
glyphname = six;
kernLeft = six;
kernRight = six;
lastChange = "2025-05-01 14:55:57 +0000";
layers = (
{
background = {
hints = (
{
name = _corner.ROUND;
type = Corner;
},
{
name = _corner.ROUND;
type = Corner;
},
{
name = _segment.CUT;
options = 1;
scale = (-1,1);
type = Segment;
},
{
name = _corner.ROUND;
type = Corner;
},
{
name = _corner.ROUND;
scale = (0.3,0.3);
type = Corner;
},
{
name = _corner.ROUND;
scale = (0.3,0.3);
type = Corner;
},
{
name = _corner.ROUND;
options = 2;
scale = (-0.3,0.3);
type = Corner;
},
{
name = _corner.ROUND;
options = 2;
scale = (-0.3,0.3);
type = Corner;
},
{
name = _corner.ROUND;
scale = (0.3,0.3);
type = Corner;
},
{
name = _corner.ROUND;
scale = (0.3,0.3);
type = Corner;
},
{
name = _segment.CUT;
scale = (-1,-1);
type = Segment;
},
{
name = _corner.ROUND;
type = Corner;
},
{
name = _corner.ROUND;
type = Corner;
},
{
name = _corner.ROUND;
type = Corner;
},
{
name = _corner.ROUND;
type = Corner;
},
{
name = _corner.ROUND;
type = Corner;
},
{
name = _corner.ROUND;
options = 2;
scale = (-0.3,0.3);
type = Corner;
},
{
name = _corner.ROUND;
scale = (0.3,0.3);
type = Corner;
},
{
name = _corner.ROUND;
scale = (0.3,0.3);
type = Corner;
},
{
name = _corner.ROUND;
options = 2;
scale = (-0.3,0.3);
type = Corner;
},
{
name = _corner.ROUND;
scale = (0.3,0.3);
type = Corner;
},
{
name = _corner.ROUND;
scale = (0.3,0.3);
type = Corner;
},
{
name = _segment.CUT;
scale = (-1,-1);
type = Segment;
},
{
name = _corner.ROUND;
type = Corner;
},
{
name = _corner.ROUND;
type = Corner;
},
{
name = _corner.ROUND;
type = Corner;
},
{
name = _corner.ROUND;
type = Corner;
},
{
name = _corner.ROUND;
type = Corner;
},
{
name = _corner.ROUND;
options = 2;
scale = (-0.3,0.3);
type = Corner;
},
{
name = _corner.ROUND;
scale = (0.3,0.3);
type = Corner;
},
{
name = _corner.ROUND;
scale = (0.3,0.3);
type = Corner;
},
{
name = _corner.ROUND;
options = 2;
scale = (-0.3,0.3);
type = Corner;
},
{
name = _corner.ROUND;
scale = (0.3,0.3);
type = Corner;
},
{
name = _corner.ROUND;
scale = (0.3,0.3);
type = Corner;
},
{
name = _segment.CUT;
scale = (-1,-1);
type = Segment;
},
{
name = _corner.ROUND;
type = Corner;
},
{
name = _corner.ROUND;
type = Corner;
},
{
name = _corner.ROUND;
type = Corner;
},
{
name = _corner.ROUND;
type = Corner;
},
{
name = _corner.ROUND;
type = Corner;
},
{
name = _corner.ROUND;
options = 2;
scale = (-0.3,0.3);
type = Corner;
},
{
name = _corner.ROUND;
scale = (0.3,0.3);
type = Corner;
},
{
name = _corner.ROUND;
scale = (0.3,0.3);
type = Corner;
},
{
name = _corner.ROUND;
options = 2;
scale = (-0.3,0.3);
type = Corner;
},
{
name = _corner.ROUND;
origin = (0,0);
scale = (0.3,0.3);
type = Corner;
},
{
name = _corner.ROUND;
origin = (0,1);
scale = (0.3,0.3);
type = Corner;
},
{
name = _segment.CUT;
origin = (0,3);
scale = (-1,-1);
type = Segment;
},
{
name = _corner.ROUND;
origin = (0,4);
type = Corner;
},
{
name = _corner.ROUND;
origin = (0,5);
type = Corner;
},
{
name = _corner.ROUND;
origin = (0,6);
type = Corner;
},
{
name = _corner.ROUND;
origin = (0,7);
type = Corner;
},
{
name = _corner.ROUND;
origin = (0,8);
type = Corner;
},
{
name = _corner.ROUND;
options = 2;
origin = (1,0);
scale = (-0.3,0.3);
type = Corner;
},
{
name = _corner.ROUND;
origin = (1,1);
scale = (0.3,0.3);
type = Corner;
},
{
name = _corner.ROUND;
origin = (1,2);
scale = (0.3,0.3);
type = Corner;
},
{
name = _corner.ROUND;
options = 2;
origin = (1,3);
scale = (-0.3,0.3);
type = Corner;
}
);
shapes = (
{
closed = 1;
nodes = (
(262,540,l),
(172,540,l),
(172,455,l),
(262,455,l),
(412,455,l),
(412,0,l),
(22,0,l),
(22,650,l),
(412,650,l),
(412,496,l),
(262,496,l)
);
},
{
closed = 1;
nodes = (
(262,110,l),
(262,345,l),
(172,345,l),
(172,110,l)
);
}
);
};
hints = (
{
name = _corner.ROUND;
origin = (0,5);
type = Corner;
},
{
name = _corner.ROUND;
origin = (0,4);
type = Corner;
},
{
name = _corner.ROUND;
origin = (0,6);
type = Corner;
},
{
name = _corner.ROUND;
origin = (1,2);
scale = (0.3,0.3);
type = Corner;
},
{
name = _corner.ROUND;
origin = (1,1);
scale = (0.3,0.3);
type = Corner;
},
{
name = _corner.ROUND;
options = 2;
origin = (1,0);
scale = (-0.3,0.3);
type = Corner;
},
{
name = _corner.ROUND;
options = 2;
origin = (1,3);
scale = (-0.3,0.3);
type = Corner;
},
{
name = _corner.ROUND;
origin = (0,7);
type = Corner;
},
{
name = _corner.ROUND;
origin = (0,8);
type = Corner;
},
{
name = _corner.ROUND;
origin = (0,0);
scale = (0.3,0.3);
type = Corner;
},
{
name = _corner.ROUND;
origin = (0,1);
scale = (0.3,0.3);
type = Corner;
},
{
name = _segment.CUT;
origin = (0,3);
scale = (-1,-1);
type = Segment;
}
);
layerId = m01;
shapes = (
{
closed = 1;
nodes = (
(262,540,l),
(172,540,l),
(172,455,l),
(262,455,l),
(412,455,l),
(412,0,l),
(22,0,l),
(22,650,l),
(412,650,l),
(412,496,l),
(262,496,l)
);
},
{
closed = 1;
nodes = (
(262,110,l),
(262,345,l),
(172,345,l),
(172,110,l)
);
}
);
width = 434;
}
);
metricLeft = "=O";
metricRight = "=O";
unicode = 54;
},
{
glyphname = seven;
kernLeft = seven;
kernRight = seven;
lastChange = "2025-04-28 00:24:57 +0000";
layers = (
{
layerId = m01;
shapes = (
{
closed = 1;
nodes = (
(377,540,l),
(377,650,l),
(17,650,l),
(17,540,l),
(227,540,l),
(67,0,l),
(217,0,l)
);
}
);
width = 394;
}
);
metricLeft = "=O*.75";
metricRight = "=O*.75";
unicode = 55;
},
{
glyphname = eight;
kernLeft = eight;
kernRight = eight;
lastChange = "2025-04-28 03:09:30 +0000";
layers = (
{
hints = (
{
name = _corner.ROUND;
origin = (0,7);
type = Corner;
},
{
name = _corner.ROUND;
origin = (0,0);
type = Corner;
},
{
name = _segment.DOUBLECUT;
origin = (0,2);
type = Segment;
},
{
name = _corner.ROUND;
origin = (2,0);
scale = (0.3,0.3);
type = Corner;
},
{
name = _corner.ROUND;
options = 2;
origin = (2,1);
scale = (-0.3,0.3);
type = Corner;
},
{
name = _corner.ROUND;
origin = (2,2);
scale = (0.3,0.3);
type = Corner;
},
{
name = _corner.ROUND;
options = 2;
origin = (1,1);
scale = (-0.3,0.3);
type = Corner;
},
{
name = _corner.ROUND;
origin = (1,2);
scale = (0.3,0.3);
type = Corner;
},
{
name = _corner.ROUND;
origin = (1,3);
scale = (0.3,0.3);
type = Corner;
},
{
name = _corner.ROUND;
origin = (2,0);
scale = (0.3,0.3);
type = Corner;
},
{
name = _corner.ROUND;
origin = (2,3);
scale = (0.3,0.3);
type = Corner;
},
{
name = _corner.ROUND;
origin = (1,0);
scale = (0.3,0.3);
type = Corner;
},
{
name = _segment.DOUBLECUT;
origin = (0,6);
type = Segment;
},
{
name = _corner.ROUND;
origin = (0,4);
type = Corner;
},
{
name = _corner.ROUND;
origin = (0,3);
type = Corner;
}
);
layerId = m01;
shapes = (
{
closed = 1;
nodes = (
(412,0,l),
(412,230,l),
(412,420,l),
(412,650,l),
(22,650,l),
(22,420,l),
(22,230,l),
(22,0,l)
);
},
{
closed = 1;
nodes = (
(172,270,l),
(262,270,l),
(262,110,l),
(172,110,l)
);
},
{
closed = 1;
nodes = (
(172,540,l),
(262,540,l),
(262,380,l),
(172,380,l)
);
}
);
width = 434;
}
);
metricLeft = "=O";
metricRight = "=O";
unicode = 56;
},
{
glyphname = nine;
kernLeft = nine;
kernRight = nine;
lastChange = "2025-05-01 14:55:33 +0000";
layers = (
{
hints = (
{
name = _corner.ROUND;
origin = (0,0);
scale = (0.3,0.3);
type = Corner;
},
{
name = _corner.ROUND;
origin = (0,1);
scale = (0.3,0.3);
type = Corner;
},
{
name = _segment.CUT;
origin = (0,3);
scale = (-1,-1);
type = Segment;
},
{
name = _corner.ROUND;
origin = (0,4);
type = Corner;
},
{
name = _corner.ROUND;
origin = (0,5);
type = Corner;
},
{
name = _corner.ROUND;
origin = (0,6);
type = Corner;
},
{
name = _corner.ROUND;
origin = (0,7);
type = Corner;
},
{
name = _corner.ROUND;
origin = (0,8);
type = Corner;
},
{
name = _corner.ROUND;
options = 2;
origin = (1,0);
scale = (-0.3,0.3);
type = Corner;
},
{
name = _corner.ROUND;
origin = (1,1);
scale = (0.3,0.3);
type = Corner;
},
{
name = _corner.ROUND;
origin = (1,2);
scale = (0.3,0.3);
type = Corner;
},
{
name = _corner.ROUND;
options = 2;
origin = (1,3);
scale = (-0.3,0.3);
type = Corner;
}
);
layerId = m01;
shapes = (
{
closed = 1;
nodes = (
(172,110,l),
(262,110,l),
(262,195,l),
(162,195,l),
(22,195,l),
(22,650,l),
(412,650,l),
(412,0,l),
(22,0,l),
(22,154,l),
(172,154,l)
);
},
{
closed = 1;
nodes = (
(172,540,l),
(172,305,l),
(262,305,l),
(262,540,l)
);
}
);
width = 434;
}
);
metricLeft = "=O";
metricRight = "=O";
unicode = 57;
},
{
glyphname = .notdef;
lastChange = "2025-04-17 15:33:44 +0000";
layers = (
{
hints = (
{
name = _corner.ROUND;
origin = (0,0);
scale = (0.3,0.3);
type = Corner;
},
{
name = _corner.ROUND;
origin = (0,1);
scale = (0.3,0.3);
type = Corner;
},
{
name = _corner.ROUND;
origin = (0,2);
scale = (0.3,0.3);
type = Corner;
},
{
name = _corner.ROUND;
origin = (0,3);
scale = (0.3,0.3);
type = Corner;
}
);
layerId = m01;
shapes = (
{
closed = 1;
nodes = (
(25,225,l),
(325,225,l),
(325,525,l),
(25,525,l)
);
}
);
width = 350;
}
);
metricLeft = "=H";
metricRight = "=H";
},
{
glyphname = period;
kernLeft = period;
kernRight = period;
lastChange = "2025-04-18 20:00:59 +0000";
layers = (
{
layerId = m01;
shapes = (
{
closed = 1;
nodes = (
(181,150,l),
(31,150,l),
(31,0,l),
(181,0,l)
);
}
);
width = 212;
}
);
metricLeft = "=h*1.25";
metricRight = "=h*1.25";
unicode = 46;
},
{
glyphname = comma;
kernLeft = period;
kernRight = period;
lastChange = "2025-04-25 04:37:11 +0000";
layers = (
{
background = {
hints = (
{
name = _corner.ROUND;
origin = (0,1);
scale = (0.3,0.3);
type = Corner;
},
{
name = _corner.ROUND;
origin = (0,4);
type = Corner;
}
);
shapes = (
{
closed = 1;
nodes = (
(31,50,l),
(31,-40,l),
(-39,-40,l),
(-39,-150,l),
(141,-150,l),
(141,50,l)
);
},
{
closed = 1;
nodes = (
(141,110,l),
(31,110,l),
(31,0,l),
(141,0,l)
);
}
);
};
hints = (
{
name = _corner.ROUND;
origin = (0,3);
scale = (0.3,0.3);
type = Corner;
},
{
name = _corner.ROUND;
origin = (0,6);
scale = (0.7,0.7);
type = Corner;
}
);
layerId = m01;
shapes = (
{
closed = 1;
nodes = (
(31,150,l),
(31,0,l),
(110,0,l),
(110,-55,l),
(51,-55,l),
(51,-110,l),
(181,-110,l),
(181,150,l)
);
}
);
width = 212;
}
);
metricLeft = "=h*1.25";
metricRight = "=h*1.25";
unicode = 44;
},
{
glyphname = exclam;
kernLeft = exclam;
kernRight = exclam;
lastChange = "2025-04-23 15:54:45 +0000";
layers = (
{
layerId = m01;
shapes = (
{
closed = 1;
nodes = (
(36,650,l),
(36,200,l),
(176,200,l),
(176,650,l)
);
},
{
closed = 1;
nodes = (
(31,150,l),
(31,0,l),
(181,0,l),
(181,150,l)
);
}
);
width = 212;
}
);
metricLeft = "=h*1.25";
metricRight = "=h*1.25";
unicode = 33;
},
{
glyphname = question;
kernLeft = question;
kernRight = question;
lastChange = "2025-05-01 15:41:22 +0000";
layers = (
{
guides = (
{
angle = 90;
pos = (217,75);
}
);
hints = (
{
name = _corner.ROUND;
origin = (0,7);
type = Corner;
},
{
name = _corner.ROUND;
origin = (0,8);
scale = (1.08,1.08);
type = Corner;
},
{
name = _corner.ROUND;
options = 2;
origin = (0,11);
scale = (-0.3,0.3);
type = Corner;
},
{
name = _corner.ROUND;
origin = (0,12);
scale = (0.3,0.3);
type = Corner;
}
);
layerId = m01;
shapes = (
{
closed = 1;
nodes = (
(262,329,o),
(147,391,o),
(147,200,c),
(287,200,l),
(287,351,o),
(412,289,o),
(412,455,c),
(412,650,l),
(22,650,l),
(22,455,l),
(172,455,l),
(172,540,l),
(262,540,l),
(262,455,l)
);
},
{
closed = 1;
nodes = (
(292,150,l),
(142,150,l),
(142,0,l),
(292,0,l)
);
}
);
width = 434;
}
);
metricLeft = "=O";
metricRight = "=O";
unicode = 63;
},
{
glyphname = bullet;
kernLeft = bullet;
kernRight = bullet;
lastChange = "2025-04-23 15:55:55 +0000";
layers = (
{
hints = (
{
name = _corner.ROUND;
origin = (0,3);
scale = (0.3,0.3);
type = Corner;
},
{
name = _corner.ROUND;
origin = (0,0);
scale = (0.3,0.3);
type = Corner;
},
{
name = _corner.ROUND;
origin = (0,1);
scale = (0.3,0.3);
type = Corner;
},
{
name = _corner.ROUND;
origin = (0,2);
scale = (0.3,0.3);
type = Corner;
}
);
layerId = m01;
shapes = (
{
closed = 1;
nodes = (
(25,175,l),
(175,175,l),
(175,325,l),
(25,325,l)
);
}
);
width = 200;
}
);
metricLeft = "=h";
metricRight = "=h";
unicode = 8226;
},
{
glyphname = asterisk;
kernLeft = asterisk;
kernRight = asterisk;
lastChange = "2025-04-23 15:56:03 +0000";
layers = (
{
layerId = m01;
shapes = (
{
closed = 1;
nodes = (
(164,650,l),
(164,285,l),
(241,285,l),
(241,650,l)
);
},
{
closed = 1;
nodes = (
(341,592,l),
(25,410,l),
(63,344,l),
(380,526,l)
);
},
{
closed = 1;
nodes = (
(26,525,l),
(342,343,l),
(380,409,l),
(64,592,l)
);
}
);
width = 405;
}
);
metricLeft = "=h";
metricRight = "=h";
unicode = 42;
},
{
glyphname = numbersign;
kernLeft = numbersign;
kernRight = numbersign;
lastChange = "2025-04-23 15:56:41 +0000";
layers = (
{
layerId = m01;
shapes = (
{
closed = 1;
nodes = (
(285,650,l),
(115,0,l),
(225,0,l),
(395,650,l)
);
},
{
closed = 1;
nodes = (
(485,650,l),
(309,0,l),
(419,0,l),
(595,650,l)
);
},
{
closed = 1;
nodes = (
(665,480,l),
(105,480,l),
(75,370,l),
(635,370,l)
);
},
{
closed = 1;
nodes = (
(615,280,l),
(55,280,l),
(25,170,l),
(585,170,l)
);
}
);
width = 690;
}
);
metricLeft = "=H";
metricRight = "=H";
unicode = 35;
},
{
glyphname = slash;
kernLeft = slash;
kernRight = slash;
lastChange = "2025-04-23 15:56:52 +0000";
layers = (
{
layerId = m01;
shapes = (
{
closed = 1;
nodes = (
(122,-27,l),
(322,670,l),
(222,670,l),
(22,-27,l)
);
}
);
width = 344;
}
);
metricLeft = "=o";
metricRight = "=o";
unicode = 47;
},
{
glyphname = hyphen;
kernLeft = hyphen;
kernRight = hyphen;
lastChange = "2025-04-18 19:38:39 +0000";
layers = (
{
layerId = m01;
shapes = (
{
closed = 1;
nodes = (
(331,300,l),
(31,300,l),
(31,200,l),
(331,200,l)
);
}
);
width = 362;
}
);
metricLeft = "=h*1.25";
metricRight = "=h*1.25";
unicode = 45;
},
{
glyphname = endash;
kernLeft = hyphen;
kernRight = hyphen;
lastChange = "2025-04-18 19:38:01 +0000";
layers = (
{
layerId = m01;
shapes = (
{
closed = 1;
nodes = (
(486,300,l),
(31,300,l),
(31,200,l),
(486,200,l)
);
}
);
width = 517;
}
);
metricLeft = "=h*1.25";
metricRight = "=h*1.25";
unicode = 8211;
},
{
glyphname = emdash;
kernLeft = hyphen;
kernRight = hyphen;
lastChange = "2025-04-18 19:38:01 +0000";
layers = (
{
layerId = m01;
shapes = (
{
closed = 1;
nodes = (
(591,300,l),
(31,300,l),
(31,200,l),
(591,200,l)
);
}
);
width = 622;
}
);
metricLeft = "=h*1.25";
metricRight = "=h*1.25";
unicode = 8212;
},
{
glyphname = underscore;
kernLeft = underscore;
kernRight = underscore;
lastChange = "2025-04-18 19:38:01 +0000";
layers = (
{
layerId = m01;
shapes = (
{
closed = 1;
nodes = (
(486,-40,l),
(31,-40,l),
(31,-140,l),
(486,-140,l)
);
}
);
width = 517;
}
);
metricLeft = "=h*1.25";
metricRight = "=h*1.25";
unicode = 95;
},
{
glyphname = parenleft;
kernLeft = parenleft;
kernRight = parenleft;
lastChange = "2025-05-01 15:04:59 +0000";
layers = (
{
hints = (
{
name = _corner.ROUND;
origin = (0,3);
scale = (0.3,0.3);
type = Corner;
},
{
name = _corner.ROUND;
options = 2;
origin = (0,4);
scale = (-0.3,0.3);
type = Corner;
},
{
name = _corner.ROUND;
origin = (0,7);
type = Corner;
},
{
name = _corner.ROUND;
origin = (0,0);
type = Corner;
}
);
layerId = m01;
shapes = (
{
closed = 1;
nodes = (
(25,-150,l),
(175,-150,l),
(175,-95,l),
(135,-95,l),
(135,595,l),
(175,595,l),
(175,650,l),
(25,650,l)
);
}
);
width = 202;
}
);
metricLeft = "=H";
metricRight = "=H";
unicode = 40;
},
{
glyphname = parenright;
kernLeft = parenright;
kernRight = parenright;
lastChange = "2025-05-01 15:14:09 +0000";
layers = (
{
hints = (
{
name = _corner.ROUND;
origin = (0,6);
type = Corner;
},
{
name = _corner.ROUND;
origin = (0,3);
scale = (0.3,0.3);
type = Corner;
},
{
name = _corner.ROUND;
options = 2;
origin = (0,2);
scale = (-0.3,0.3);
type = Corner;
},
{
name = _corner.ROUND;
origin = (0,7);
type = Corner;
}
);
layerId = m01;
shapes = (
{
closed = 1;
nodes = (
(27,650,l),
(27,595,l),
(67,595,l),
(67,-95,l),
(27,-95,l),
(27,-150,l),
(177,-150,l),
(177,650,l)
);
}
);
width = 202;
}
);
metricLeft = "=H";
metricRight = "=H";
unicode = 41;
},
{
glyphname = braceleft;
kernLeft = braceleft;
kernRight = braceleft;
lastChange = "2025-05-01 15:15:04 +0000";
layers = (
{
hints = (
{
name = _corner.ROUND;
origin = (0,2);
type = Corner;
},
{
name = _corner.ROUND;
origin = (0,5);
scale = (0.3,0.3);
type = Corner;
},
{
name = _corner.ROUND;
options = 2;
origin = (0,8);
scale = (-0.3,0.3);
type = Corner;
},
{
name = _corner.ROUND;
origin = (0,11);
type = Corner;
},
{
name = _segment.DOUBLECUT;
origin = (0,1);
scale = (1,-1);
type = Segment;
},
{
name = _segment.DOUBLECUT;
origin = (0,7);
type = Segment;
}
);
layerId = m01;
shapes = (
{
closed = 1;
nodes = (
(91,413,l),
(91,88,l),
(91,-150,l),
(241,-150,l),
(241,-95,l),
(201,-95,l),
(201,158,l),
(201,343,l),
(201,595,l),
(241,595,l),
(241,650,l),
(91,650,l)
);
}
);
width = 268;
}
);
metricLeft = "=H";
metricRight = "=H";
unicode = 123;
},
{
glyphname = braceright;
kernLeft = braceright;
kernRight = braceright;
lastChange = "2025-05-01 15:15:39 +0000";
layers = (
{
hints = (
{
name = _corner.ROUND;
origin = (0,8);
type = Corner;
},
{
name = _corner.ROUND;
origin = (0,5);
scale = (0.3,0.3);
type = Corner;
},
{
name = _corner.ROUND;
options = 2;
origin = (0,2);
scale = (-0.3,0.3);
type = Corner;
},
{
name = _corner.ROUND;
origin = (0,11);
type = Corner;
},
{
name = _segment.DOUBLECUT;
options = 1;
origin = (0,10);
scale = (1,-1);
type = Segment;
},
{
name = _segment.DOUBLECUT;
origin = (0,4);
type = Segment;
}
);
layerId = m01;
shapes = (
{
closed = 1;
nodes = (
(27,650,l),
(27,595,l),
(67,595,l),
(67,343,l),
(67,158,l),
(67,-96,l),
(27,-96,l),
(27,-150,l),
(177,-150,l),
(177,88,l),
(177,413,l),
(177,650,l)
);
}
);
width = 268;
}
);
metricLeft = "=H";
metricRight = "=H";
unicode = 125;
},
{
glyphname = bracketleft;
kernLeft = bracketleft;
kernRight = bracketleft;
lastChange = "2025-05-01 15:15:47 +0000";
layers = (
{
layerId = m01;
shapes = (
{
closed = 1;
nodes = (
(25,-150,l),
(175,-150,l),
(175,-95,l),
(135,-95,l),
(135,595,l),
(175,595,l),
(175,650,l),
(25,650,l)
);
}
);
width = 200;
}
);
metricLeft = "=H";
metricRight = "=H";
unicode = 91;
},
{
glyphname = bracketright;
kernLeft = bracketright;
kernRight = bracketright;
lastChange = "2025-05-01 15:15:52 +0000";
layers = (
{
layerId = m01;
shapes = (
{
closed = 1;
nodes = (
(25,650,l),
(25,595,l),
(65,595,l),
(65,-95,l),
(25,-95,l),
(25,-150,l),
(175,-150,l),
(175,650,l)
);
}
);
width = 200;
}
);
metricLeft = "=H";
metricRight = "=H";
unicode = 93;
},
{
glyphname = guilsinglleft;
kernLeft = guillemetleft;
kernRight = guillemetleft;
lastChange = "2025-04-23 16:00:21 +0000";
layers = (
{
layerId = m01;
shapes = (
{
closed = 1;
nodes = (
(22,195,l),
(152,315,l),
(152,425,l),
(22,305,l)
);
},
{
closed = 1;
nodes = (
(152,75,l),
(152,185,l),
(22,305,l),
(22,195,l)
);
}
);
width = 174;
}
);
metricLeft = "=o";
metricRight = "=o";
unicode = 8249;
},
{
glyphname = quotesingle;
kernLeft = quotesingle;
kernRight = quotesingle;
lastChange = "2025-04-23 16:00:55 +0000";
layers = (
{
layerId = m01;
shapes = (
{
closed = 1;
nodes = (
(22,430,l),
(112,430,l),
(112,650,l),
(22,650,l)
);
}
);
width = 134;
}
);
metricLeft = "=o";
metricRight = "=o";
unicode = 39;
},
{
glyphname = at;
lastChange = "2025-05-12 09:07:29 +0000";
layers = (
{
hints = (
{
name = _corner.ROUND;
origin = (2,1);
type = Corner;
},
{
name = _corner.ROUND;
origin = (2,2);
type = Corner;
},
{
name = _corner.ROUND;
origin = (3,0);
scale = (0.3,0.3);
type = Corner;
},
{
name = _corner.ROUND;
options = 2;
origin = (3,3);
scale = (-0.3,0.3);
type = Corner;
},
{
name = _corner.ROUND;
origin = (3,1);
scale = (0.3,0.3);
type = Corner;
},
{
name = _corner.ROUND;
options = 2;
origin = (3,2);
scale = (-0.3,0.3);
type = Corner;
},
{
name = _corner.ROUND;
origin = (2,3);
type = Corner;
},
{
name = _corner.ROUND;
origin = (2,0);
type = Corner;
},
{
name = _corner.ROUND;
origin = (0,6);
scale = (0.3,0.3);
type = Corner;
},
{
name = _corner.ROUND;
options = 2;
origin = (0,5);
scale = (-0.3,0.3);
type = Corner;
},
{
name = _corner.ROUND;
origin = (0,2);
type = Corner;
},
{
name = _corner.ROUND;
origin = (0,1);
type = Corner;
},
{
name = _corner.ROUND;
options = 2;
origin = (1,1);
scale = (-0.2,0.2);
type = Corner;
},
{
name = _corner.ROUND;
origin = (1,0);
scale = (0.3,0.3);
type = Corner;
},
{
name = _corner.ROUND;
origin = (0,5);
scale = (0.3,0.3);
type = Corner;
},
{
name = _corner.ROUND;
origin = (0,6);
scale = (0.3,0.3);
type = Corner;
},
{
name = _corner.ROUND;
origin = (0,11);
scale = (0.75,0.75);
type = Corner;
},
{
name = _segment.CUT;
options = 1;
origin = (0,13);
scale = (-1,1);
type = Segment;
}
);
layerId = m01;
shapes = (
{
closed = 1;
nodes = (
(575,0,l),
(575,500,l),
(210,500,l),
(210,335,l),
(350,335,l),
(350,400,l),
(435,400,l),
(435,345,l),
(435,269,o),
(210,326,o),
(210,160,c),
(210,0,l),
(350,0,l),
(435,0,l)
);
},
{
closed = 1;
nodes = (
(435,100,l),
(350,100,l),
(350,170,ls),
(350,207,o),
(389,215,o),
(435,225,c)
);
},
{
closed = 1;
nodes = (
(22,-150,l),
(762,-150,l),
(762,650,l),
(22,650,l)
);
},
{
closed = 1;
nodes = (
(612,-40,l),
(172,-40,l),
(172,540,l),
(612,540,l)
);
}
);
width = 784;
}
);
metricLeft = "=O";
metricRight = "=O";
unicode = 64;
},
{
glyphname = dollar;
kernLeft = dollar;
kernRight = dollar;
lastChange = "2025-04-23 16:01:10 +0000";
layers = (
{
layerId = m01;
shapes = (
{
ref = S;
},
{
closed = 1;
nodes = (
(165,650,l),
(275,650,l),
(275,730,l),
(165,730,l)
);
},
{
closed = 1;
nodes = (
(165,-80,l),
(275,-80,l),
(275,0,l),
(165,0,l)
);
}
);
width = 444;
}
);
metricLeft = "=O";
metricRight = "=O";
unicode = 36;
},
{
glyphname = euro;
kernLeft = euro;
kernRight = euro;
lastChange = "2025-05-01 15:17:50 +0000";
layers = (
{
hints = (
{
name = _corner.ROUND;
origin = (0,0);
type = Corner;
},
{
name = _corner.ROUND;
origin = (0,1);
scale = (1.08,1.08);
type = Corner;
},
{
name = _corner.ROUND;
origin = (0,10);
scale = (1.08,1.08);
type = Corner;
},
{
name = _corner.ROUND;
origin = (0,11);
type = Corner;
},
{
name = _corner.ROUND;
origin = (0,4);
scale = (0.3,0.3);
type = Corner;
},
{
name = _corner.ROUND;
options = 2;
origin = (0,5);
scale = (-0.3,0.3);
type = Corner;
},
{
name = _corner.ROUND;
origin = (0,6);
scale = (0.3,0.3);
type = Corner;
},
{
name = _corner.ROUND;
options = 2;
origin = (0,7);
scale = (-0.3,0.3);
type = Corner;
}
);
layerId = m01;
shapes = (
{
closed = 1;
nodes = (
(57,0,l),
(457,0,l),
(457,185,l),
(307,185,l),
(307,110,l),
(207,110,l),
(207,540,l),
(307,540,l),
(307,465,l),
(457,465,l),
(457,650,l),
(57,650,l)
);
},
{
pos = (-28,-25);
ref = strokeshortcomb;
},
{
pos = (-28,-165);
ref = strokeshortcomb;
}
);
width = 479;
}
);
metricLeft = "=O";
metricRight = "=O";
unicode = 8364;
},
{
glyphname = plus;
lastChange = "2025-05-01 15:21:55 +0000";
layers = (
{
layerId = m01;
shapes = (
{
closed = 1;
nodes = (
(50,305,l),
(50,195,l),
(450,195,l),
(450,305,l)
);
},
{
closed = 1;
nodes = (
(305,450,l),
(195,450,l),
(195,50,l),
(305,50,l)
);
}
);
width = 500;
}
);
metricLeft = "=H*2.0";
metricRight = "=H*2.0";
unicode = 43;
},
{
glyphname = minus;
lastChange = "2025-05-01 15:22:27 +0000";
layers = (
{
layerId = m01;
shapes = (
{
closed = 1;
nodes = (
(50,305,l),
(50,195,l),
(450,195,l),
(450,305,l)
);
}
);
width = 500;
}
);
metricLeft = "=H*2.0";
metricRight = "=H*2.0";
unicode = 8722;
},
{
glyphname = multiply;
lastChange = "2025-05-01 15:22:27 +0000";
layers = (
{
layerId = m01;
shapes = (
{
closed = 1;
nodes = (
(128,431,l),
(50,353,l),
(333,70,l),
(411,148,l)
);
},
{
closed = 1;
nodes = (
(411,353,l),
(333,431,l),
(50,148,l),
(128,70,l)
);
}
);
width = 461;
}
);
metricLeft = "=H*2.0";
metricRight = "=H*2.0";
unicode = 215;
},
{
glyphname = divide;
lastChange = "2025-05-01 15:22:27 +0000";
layers = (
{
background = {
shapes = (
{
closed = 1;
nodes = (
(50,304,l),
(50,194,l),
(450,194,l),
(450,304,l)
);
},
{
closed = 1;
nodes = (
(280,354,o),
(305,378,o),
(305,409,cs),
(305,439,o),
(280,464,o),
(250,464,cs),
(219,464,o),
(195,439,o),
(195,409,cs),
(195,378,o),
(219,354,o),
(250,354,cs)
);
},
{
closed = 1;
nodes = (
(280,36,o),
(305,60,o),
(305,91,cs),
(305,121,o),
(280,146,o),
(250,146,cs),
(219,146,o),
(195,121,o),
(195,91,cs),
(195,60,o),
(219,36,o),
(250,36,cs)
);
}
);
};
layerId = m01;
shapes = (
{
closed = 1;
nodes = (
(50,304,l),
(50,194,l),
(450,194,l),
(450,304,l)
);
},
{
closed = 1;
nodes = (
(280,354,o),
(305,379,o),
(305,409,cs),
(305,439,o),
(280,464,o),
(250,464,cs),
(220,464,o),
(195,439,o),
(195,409,cs),
(195,379,o),
(220,354,o),
(250,354,cs)
);
},
{
closed = 1;
nodes = (
(280,36,o),
(305,61,o),
(305,91,cs),
(305,121,o),
(280,146,o),
(250,146,cs),
(220,146,o),
(195,121,o),
(195,91,cs),
(195,61,o),
(220,36,o),
(250,36,cs)
);
}
);
width = 500;
}
);
metricLeft = "=H*2.0";
metricRight = "=H*2.0";
unicode = 247;
},
{
glyphname = equal;
lastChange = "2025-05-01 15:22:27 +0000";
layers = (
{
layerId = m01;
shapes = (
{
closed = 1;
nodes = (
(50,405,l),
(50,295,l),
(400,295,l),
(400,405,l)
);
},
{
closed = 1;
nodes = (
(50,205,l),
(50,95,l),
(400,95,l),
(400,205,l)
);
}
);
width = 450;
}
);
metricLeft = "=H*2.0";
metricRight = "=H*2.0";
unicode = 61;
},
{
glyphname = dieresiscomb;
kernLeft = dieresiscomb;
kernRight = dieresiscomb;
lastChange = "2025-04-17 20:04:21 +0000";
layers = (
{
anchors = (
{
name = _top;
pos = (215,525);
},
{
name = top;
pos = (215,675);
}
);
layerId = m01;
shapes = (
{
closed = 1;
nodes = (
(190,675,l),
(50,675,l),
(50,575,l),
(190,575,l)
);
},
{
closed = 1;
nodes = (
(380,675,l),
(240,675,l),
(240,575,l),
(380,575,l)
);
}
);
width = 430;
}
);
metricLeft = "=50";
metricRight = "=50";
unicode = 776;
},
{
glyphname = dotaccentcomb;
kernLeft = dotaccentcomb;
kernRight = dotaccentcomb;
lastChange = "2025-04-28 03:15:25 +0000";
layers = (
{
anchors = (
{
name = _top;
pos = (120,525);
},
{
name = top;
pos = (120,675);
}
);
layerId = m01;
shapes = (
{
closed = 1;
nodes = (
(190,675,l),
(50,675,l),
(50,575,l),
(190,575,l)
);
}
);
width = 240;
}
);
metricLeft = "=50";
metricRight = "=50";
unicode = 775;
},
{
glyphname = gravecomb;
kernLeft = gravecomb;
kernRight = gravecomb;
lastChange = "2025-04-23 17:16:58 +0000";
layers = (
{
anchors = (
{
name = _top;
pos = (225,500);
},
{
name = top;
pos = (165,675);
}
);
layerId = m01;
shapes = (
{
closed = 1;
nodes = (
(280,545,l),
(160,675,l),
(50,675,l),
(170,545,l)
);
}
);
width = 330;
}
);
metricLeft = "=50";
metricRight = "=50";
unicode = 768;
},
{
glyphname = acutecomb;
kernLeft = acutecomb;
kernRight = acutecomb;
lastChange = "2025-04-23 17:16:44 +0000";
layers = (
{
anchors = (
{
name = _top;
pos = (105,500);
},
{
name = top;
pos = (165,675);
}
);
layerId = m01;
shapes = (
{
closed = 1;
nodes = (
(280,675,l),
(170,675,l),
(50,545,l),
(160,545,l)
);
}
);
width = 330;
}
);
metricLeft = "=50";
metricRight = "=50";
unicode = 769;
},
{
glyphname = circumflexcomb;
kernLeft = circumflexcomb;
kernRight = circumflexcomb;
lastChange = "2025-04-23 16:05:17 +0000";
layers = (
{
anchors = (
{
name = _top;
pos = (225,500);
},
{
name = top;
pos = (225,675);
}
);
layerId = m01;
shapes = (
{
closed = 1;
nodes = (
(50,545,l),
(160,545,l),
(280,675,l),
(170,675,l)
);
},
{
closed = 1;
nodes = (
(170,675,l),
(290,545,l),
(400,545,l),
(280,675,l)
);
}
);
width = 450;
}
);
metricLeft = "=50";
metricRight = "=50";
unicode = 770;
},
{
glyphname = ringcomb;
kernLeft = ringcomb;
kernRight = ringcomb;
lastChange = "2025-05-01 15:25:51 +0000";
layers = (
{
anchors = (
{
name = _top;
pos = (105,500);
},
{
name = top;
pos = (105,665);
}
);
background = {
shapes = (
{
closed = 1;
nodes = (
(136,555,o),
(160,580,o),
(160,610,c),
(160,638,o),
(136,665,o),
(105,665,cs),
(74,665,o),
(50,638,o),
(50,610,c),
(50,580,o),
(74,555,o),
(105,555,cs)
);
},
{
closed = 1;
nodes = (
(91,585,o),
(80,596,o),
(80,610,cs),
(80,622,o),
(91,635,o),
(105,635,c),
(119,635,o),
(130,622,o),
(130,610,c),
(130,596,o),
(119,585,o),
(105,585,cs)
);
}
);
};
layerId = m01;
shapes = (
{
closed = 1;
nodes = (
(135,540,o),
(160,565,o),
(160,595,c),
(160,625,o),
(135,650,o),
(105,650,cs),
(75,650,o),
(50,625,o),
(50,595,c),
(50,565,o),
(75,540,o),
(105,540,cs)
);
},
{
closed = 1;
nodes = (
(97,580,o),
(90,587,o),
(90,595,cs),
(90,603,o),
(97,610,o),
(105,610,c),
(113,610,o),
(120,603,o),
(120,595,c),
(120,587,o),
(113,580,o),
(105,580,cs)
);
}
);
width = 210;
}
);
metricLeft = "=50";
metricRight = "=50";
unicode = 778;
},
{
glyphname = tildecomb;
kernLeft = tildecomb;
kernRight = tildecomb;
lastChange = "2025-04-28 00:19:14 +0000";
layers = (
{
anchors = (
{
name = _top;
pos = (182,500);
},
{
name = top;
pos = (182,655);
}
);
hints = (
{
name = _corner.ROUND;
origin = (0,1);
scale = (0.5,0.5);
type = Corner;
},
{
name = _corner.ROUND;
origin = (0,6);
scale = (0.25,0.25);
type = Corner;
},
{
name = _corner.ROUND;
origin = (0,5);
scale = (0.5,0.5);
type = Corner;
},
{
name = _corner.ROUND;
origin = (0,2);
scale = (0.25,0.25);
type = Corner;
}
);
layerId = m01;
shapes = (
{
closed = 1;
nodes = (
(50,577,l),
(110,681,l),
(245,603,l),
(271,647,l),
(314,622,l),
(253,517,l),
(118,595,l),
(93,552,l)
);
}
);
width = 364;
}
);
metricLeft = "=50";
metricRight = "=50";
unicode = 771;
},
{
glyphname = cedillacomb;
kernLeft = cedillacomb;
kernRight = cedillacomb;
lastChange = "2025-05-01 15:27:10 +0000";
layers = (
{
anchors = (
{
name = _bottom;
pos = (75,0);
},
{
name = bottom;
pos = (75,-202);
}
);
hints = (
{
name = _corner.ROUND;
origin = (0,1);
scale = (0.5,0.5);
type = Corner;
},
{
name = _corner.ROUND;
origin = (0,2);
scale = (0.25,0.25);
type = Corner;
},
{
name = _corner.ROUND;
origin = (0,5);
scale = (0.5,0.5);
type = Corner;
},
{
name = _corner.ROUND;
origin = (0,6);
scale = (0.125,0.125);
type = Corner;
},
{
name = _corner.ROUND;
options = 1;
origin = (0,5);
scale = (-0.5,0.5);
type = Corner;
},
{
name = _corner.ROUND;
origin = (0,7);
scale = (0.125,0.125);
type = Corner;
},
{
name = _corner.ROUND;
origin = (0,0);
scale = (0.5,0.5);
type = Corner;
}
);
layerId = m01;
shapes = (
{
closed = 1;
nodes = (
(206,-200,l),
(206,-50,l),
(100,-50,l),
(100,0,l),
(50,0,l),
(50,-100,l),
(156,-100,l),
(156,-150,l),
(50,-150,l),
(50,-200,l)
);
}
);
width = 256;
}
);
metricLeft = "=50";
metricRight = "=50";
unicode = 807;
},
{
glyphname = strokeshortcomb;
kernLeft = strokeshortcomb;
kernRight = strokeshortcomb;
lastChange = "2025-04-25 16:35:34 +0000";
layers = (
{
anchors = (
{
name = _center;
pos = (180,420);
}
);
layerId = m01;
shapes = (
{
closed = 1;
nodes = (
(50,475,l),
(50,365,l),
(310,365,l),
(310,475,l)
);
}
);
width = 360;
}
);
metricLeft = "=50";
metricRight = "=50";
unicode = 821;
},
{
glyphname = slashshortcomb;
kernLeft = slashshortcomb;
kernRight = slashshortcomb;
lastChange = "2025-04-17 20:04:21 +0000";
layers = (
{
anchors = (
{
name = _center;
pos = (190,478);
}
);
layerId = m01;
shapes = (
{
closed = 1;
nodes = (
(50,460,l),
(105,365,l),
(330,495,l),
(275,590,l)
);
}
);
width = 380;
}
);
metricLeft = "=50";
metricRight = "=50";
unicode = 823;
},
{
glyphname = slashlongcomb;
kernLeft = slash;
kernRight = slash;
lastChange = "2025-05-01 12:59:11 +0000";
layers = (
{
anchors = (
{
name = _center;
pos = (185,349);
}
);
layerId = m01;
shapes = (
{
closed = 1;
nodes = (
(120,-25,l),
(320,722,l),
(250,722,l),
(50,-25,l)
);
}
);
width = 370;
}
);
metricLeft = "=50";
metricRight = "=50";
unicode = 824;
},
{
export = 0;
glyphname = _corner.ROUND;
kernLeft = _corner.ROUND;
kernRight = _corner.ROUND;
lastChange = "2025-04-17 20:04:21 +0000";
layers = (
{
anchors = (
{
name = left;
pos = (30,140);
},
{
name = origin;
pos = (30,0);
}
);
annotations = (
{
pos = (186,16);
text = "off by 1 in a few spots (fixed)";
type = Text;
}
);
background = {
shapes = (
{
closed = 0;
nodes = (
(30,139,l),
(30,62,o),
(93,-1,o),
(170,-1,cs)
);
}
);
};
layerId = m01;
shapes = (
{
closed = 0;
nodes = (
(30,140,l),
(30,63,o),
(93,0,o),
(170,0,c)
);
}
);
width = 200;
}
);
},
{
export = 0;
glyphname = _segment.CUT;
kernLeft = _segment.CUT;
kernRight = _segment.CUT;
lastChange = "2025-04-17 20:04:21 +0000";
layers = (
{
anchors = (
{
name = end;
pos = (366,0);
},
{
name = start;
pos = (275,0);
}
);
annotations = (
{
pos = (290,15);
text = "23 x 24";
type = Text;
},
{
pos = (346,12);
text = "91 distance instead of 85";
type = Text;
width = 130;
},
{
pos = (265,73);
text = "marked for export ?";
type = Text;
}
);
background = {
shapes = (
{
closed = 0;
nodes = (
(275,0,l),
(275,40,l),
(298,16,o),
(334,0,o),
(366,0,c)
);
}
);
};
layerId = m01;
shapes = (
{
closed = 0;
nodes = (
(275,0,l),
(275,40,l),
(296,16,o),
(335,0,o),
(365,0,c)
);
}
);
width = 600;
}
);
},
